<svg width="280" height="111" viewBox="0 0 280 111" fill="none" xmlns="http://www.w3.org/2000/svg">
<g clip-path="url(#clip0_105_199)">
<path fill-rule="evenodd" clip-rule="evenodd" d="M132.902 67.3615C132.887 67.6819 132.872 67.9413 132.857 68.2007C132.841 68.4601 132.841 68.7347 132.841 69.0856C133.48 68.6737 133.435 67.8193 134.211 67.5751C134.18 68.1549 133.815 68.6432 134.104 69.2382C134.454 68.6279 134.622 68.0176 135.169 67.5599C135.382 68.1397 135.124 68.7805 135.641 69.2382C136.006 68.3685 135.976 67.4226 136.63 66.7207C136.66 67.6362 136.295 68.4753 136.478 69.3755C136.721 68.9788 136.95 68.5974 137.117 68.2007C137.847 66.4003 138.517 64.5847 139.293 62.7843C139.84 61.5485 140.449 60.3279 141.027 59.1225C141.118 58.9089 141.301 58.7563 141.468 58.497C142.107 59.153 142.746 59.7176 143.279 60.3431C144.42 61.701 145.531 63.0742 146.611 64.4779C147.935 66.1562 149.319 67.7887 150.886 69.284C151.023 69.4213 151.191 69.5586 151.404 69.757C154.644 61.2128 158.281 52.8975 161.537 44.3381C161.05 44.6127 160.715 44.811 160.289 45.0399C160.35 44.5974 160.396 44.2465 160.457 43.8498C159.513 44.0634 159.665 44.9484 159.163 45.4213C159.072 44.9789 159.452 44.5517 159.042 44.155C158.646 44.3686 158.661 44.9331 158.068 45.0399C158.113 44.5517 158.174 44.1092 158.235 43.6362C157.535 43.8193 157.505 44.5211 157.003 44.8721C156.911 44.5211 156.82 44.2465 156.714 43.8651C156.409 44.3381 156.288 44.8721 155.664 45.0552C155.633 44.6585 155.618 44.2618 155.557 43.7735C154.766 44.3838 154.599 45.4519 153.534 45.6807C153.458 45.2383 153.412 44.8568 153.336 44.3533C153.138 44.5822 153.032 44.6737 152.971 44.8263C152.743 45.3145 152.469 45.8333 152.286 46.3368C151.86 47.6184 151.465 48.8848 151.084 50.1359C150.658 51.4938 150.247 52.867 149.578 54.1333C149.471 54.3622 149.319 54.5453 149.152 54.8504C148.513 54.1791 147.904 53.5841 147.372 52.9433C146.078 51.3717 144.831 49.785 143.553 48.1982C142.275 46.6114 140.951 45.0704 139.353 43.7888C139.217 43.6667 139.064 43.6057 138.958 43.5142C138.867 43.5599 138.821 43.5904 138.806 43.6362C138.684 43.8193 138.562 44.0329 138.456 44.2465C136.782 47.4658 135.489 50.8377 134.241 54.1944C132.72 58.2834 131.29 62.3876 129.372 66.3088C129.342 66.3545 129.342 66.4461 129.342 66.5224C129.92 66.7512 129.996 65.9426 130.559 66.0799C130.559 67.0106 129.996 67.8498 130.027 68.8415C130.818 68.4143 130.879 67.4836 131.67 67.0869C131.868 67.7582 131.426 68.277 131.442 68.8873C132.035 68.4601 131.974 67.5751 132.902 67.3615Z" fill="black"/>
<path fill-rule="evenodd" clip-rule="evenodd" d="M127.851 64.2797C127.364 63.7457 126.542 64.0661 126.223 63.3948C126.71 63.1354 127.212 62.876 127.699 62.6014C125.63 62.4641 123.606 62.4183 121.582 62.3725C119.544 62.2962 117.52 62.2352 115.451 62.1437C115.481 61.9758 115.496 61.8843 115.542 61.8232C115.968 61.0299 116.425 60.2365 116.835 59.4431C117.14 58.8175 117.657 58.5734 118.357 58.5734C119.848 58.5734 121.339 58.5276 122.83 58.5429C124.991 58.5734 127.151 58.665 129.327 58.726C129.585 58.7565 129.859 58.7107 130.27 58.7107C129.981 58.4514 129.844 58.314 129.677 58.1767C129.159 57.78 129.19 57.5512 129.798 57.2918C130.088 57.1545 130.392 57.0172 130.803 56.8493C130.498 56.6662 130.301 56.5747 130.118 56.4526C129.951 56.3306 129.829 56.178 129.662 55.9796C130.118 55.6745 130.787 55.7661 130.924 55.1558C130.559 54.8811 129.996 55.0337 129.677 54.637C130.042 54.3319 130.559 54.2403 130.772 53.7063C130.285 53.63 129.844 53.569 129.403 53.5385C127.821 53.4927 122.267 53.3249 121.08 53.2791C120.7 53.2486 120.289 53.157 119.848 53.096C120.076 52.5162 120.228 51.9975 120.426 51.5092C120.654 50.9447 120.822 50.8837 121.461 50.8837C122.267 50.8989 123.073 50.9294 123.895 50.8989C126.573 50.8074 129.22 50.6701 131.898 50.548C131.944 50.548 132.005 50.5327 132.065 50.5022C131.898 50.0598 131.898 50.0598 132.294 49.8919C132.431 49.8462 132.537 49.7546 132.689 49.6783C132.385 49.4952 132.142 49.3579 131.898 49.1901C132.339 48.534 133.252 48.5188 133.602 47.8169C133.359 47.7254 133.146 47.6949 132.978 47.6033C132.705 47.4813 132.674 47.2829 132.948 47.1151C133.161 46.9778 133.435 46.8862 133.663 46.7947C133.922 46.6574 134.196 46.5658 134.256 46.2302C133.983 45.9555 133.435 46.2607 133.252 45.8182C133.739 45.1926 134.728 45.2384 135.215 44.4908C128.475 44.3535 121.841 44.1857 115.253 44.0483C115.162 44.2314 115.086 44.3535 115.025 44.4755C113.077 48.6256 111.084 52.7908 109.152 56.9409C107.509 60.4959 105.941 64.0661 104.648 67.7431C104.587 67.9567 104.527 68.1703 104.45 68.445C105.013 68.3992 105.485 68.3687 105.957 68.3687C110.354 68.3229 114.72 68.2924 119.118 68.2466C121.719 68.2314 124.306 68.1703 126.908 68.1246C127.136 68.1246 127.334 68.1093 127.592 68.0483C127.273 67.6211 126.679 67.6058 126.542 67.0718C126.908 66.9345 127.242 66.8124 127.714 66.6446C127.197 66.431 126.801 66.2784 126.253 66.0648C126.816 65.8054 127.227 65.5918 127.653 65.3935C127.364 64.9053 126.649 65.0883 126.345 64.6306C126.816 64.5086 127.273 64.417 127.851 64.2797Z" fill="black"/>
<path fill-rule="evenodd" clip-rule="evenodd" d="M55.9605 57.4138C56.2648 57.1392 56.5234 56.8951 56.7821 56.6967C58.6383 55.11 60.7075 53.7978 62.7311 52.4399C64.3743 51.2956 66.0175 50.1513 67.6151 48.9612C68.2085 48.5493 68.7562 48 69.2735 47.5423C69.2126 47.3287 69.1822 47.2219 69.1214 47.0693C69.4713 46.8557 69.7756 46.6726 70.0647 46.459C70.5516 46.1386 70.5516 46.1386 70.6885 45.6961C70.3994 45.8182 70.1255 45.8792 69.7756 46.0165C69.9277 45.452 70.2625 45.1774 70.582 44.8722C70.9624 44.5518 71.3884 44.2467 71.7687 43.911C72.0122 43.6974 72.2556 43.4838 72.3317 43.1329C71.784 43.1329 71.3884 43.3465 71.008 43.5601C70.582 43.7889 70.1712 44.0788 69.7452 44.3229C69.4561 44.4908 69.1518 44.6739 68.604 44.5976C68.954 44.3229 69.2126 44.1093 69.4561 43.9263C69.6995 43.7126 69.9582 43.5601 70.1712 43.3465C70.3233 43.2244 70.445 43.0413 70.2625 42.8125C69.0909 43.4228 67.9194 44.0025 66.7022 44.6281C66.6565 43.8042 67.0673 43.1634 66.9913 42.3395C63.3093 45.2384 59.4903 47.7559 55.6866 50.3191C55.717 50.0597 55.7627 49.8461 55.8539 49.6478C56.4169 48.3814 56.9951 47.1303 57.5428 45.8639C58.0145 44.8112 58.4557 43.7126 58.8969 42.6599C58.9426 42.5378 58.9274 42.3852 58.9426 42.1869C58.3644 42.5073 58.0297 43.0261 57.2385 43.1634C57.5884 42.5073 57.8623 41.9733 58.1362 41.4393C58.4253 40.9053 58.7448 40.3713 58.5774 39.5779C57.695 40.6001 57.0864 41.7292 55.8539 42.3853C55.8387 41.7292 56.143 41.1036 55.7627 40.4628C55.0171 41.2562 54.4846 42.1716 53.4804 42.6599C53.45 42.3852 53.4348 42.1259 53.4043 41.8207C53.1913 41.9123 53.0392 41.958 52.8414 42.0038C52.5827 41.3477 53.1153 40.6764 52.6588 39.9898C52.2024 40.6459 52.0046 41.4088 51.259 41.8818C51.3503 40.6154 51.3503 40.6154 51.0308 40.2492C49.6615 43.4685 48.3986 46.6421 47.1054 49.8461C45.8121 53.0197 44.5341 56.239 43.2256 59.4126C41.9323 62.5861 40.639 65.7444 39.2849 68.979C39.6501 68.8111 39.9087 68.7196 40.1674 68.5823C40.3347 69.0247 40.0152 69.4672 40.3804 69.8181C40.8977 69.4367 40.8368 68.628 41.6889 68.4907C41.628 68.8111 41.5519 69.1163 41.5063 69.4062C41.5367 69.4367 41.5976 69.4367 41.628 69.452C41.7954 69.3299 41.978 69.1926 42.2518 69.0095C42.1605 69.5893 42.0997 70.0775 42.0236 70.6268C42.617 70.4895 42.9517 70.1843 43.2256 69.8029C43.5147 69.4825 43.7581 69.101 44.0472 68.7959C44.2754 68.4907 44.5493 68.1856 45.0514 68.0788C44.9144 68.8417 44.5645 69.5435 44.7319 70.4132C45.0057 70.1538 45.2035 70.0012 45.3557 69.7876C45.5535 69.5282 45.6752 69.2231 45.8578 68.9637C46.0555 68.7043 46.2229 68.3992 46.6337 68.3992C46.6641 68.6128 46.6946 68.7959 46.7402 69.0705C47.1054 68.5975 47.0445 67.8957 47.7292 67.7889C47.9726 68.2314 47.3488 68.6738 47.8205 69.1926C47.9878 68.8722 48.1552 68.6128 48.2465 68.3229C48.566 67.4532 48.8551 66.5683 49.1594 65.7139C49.4789 64.7984 49.7832 63.8677 50.1027 62.9675C50.2244 62.6471 50.4527 62.3572 50.6657 61.9605C50.9395 62.281 51.1525 62.5403 51.3351 62.7997C52.0959 63.8677 52.8414 64.951 53.6326 66.0038C54.4846 67.1176 55.4127 68.2008 56.2952 69.2994C56.4017 69.4367 56.5386 69.513 56.7212 69.6656C56.8125 68.9179 56.0365 68.4297 56.3104 67.6058C56.6147 67.8804 56.8429 68.0788 57.0559 68.2771C57.3602 68.5975 57.6493 68.9332 57.9688 69.2383C58.1666 69.4062 58.3948 69.635 58.7752 69.4977C58.5318 69.0095 58.2883 68.5365 58.0753 68.0788C57.8471 67.6058 57.6189 67.1481 57.7558 66.5073C58.6991 66.9802 59.3077 67.8347 60.3423 68.2161C60.2967 67.2396 59.3534 66.6751 59.3686 65.6986C59.6425 65.7749 59.8707 65.8207 60.0837 65.9122C60.3119 66.0343 60.5097 66.1716 60.7227 66.2784C61.0118 66.4157 61.2857 66.553 61.5748 66.3242C59.7338 63.3947 57.8623 60.4348 55.9605 57.4138Z" fill="black"/>
<path fill-rule="evenodd" clip-rule="evenodd" d="M87.1511 69.7874C87.7597 69.3144 87.7445 68.4142 88.5357 68.0175C88.6117 68.4295 88.2314 68.8872 88.703 69.3297C88.9921 68.7651 89.2964 68.3227 89.4942 67.8344C89.9354 66.7664 90.331 65.6679 90.7418 64.5693C91.2439 63.303 91.7308 62.0214 92.2481 60.7245C92.3698 60.4498 92.598 60.16 92.7806 59.8395C93.6935 60.5414 94.3173 61.35 94.5151 62.5554C95.1085 62.1587 95.5802 61.8383 96.0518 61.5026C96.5691 61.1822 97.056 60.8008 97.5885 60.4804C97.8015 60.3583 98.0602 60.2973 98.3036 60.2057C98.3341 60.2515 98.3645 60.282 98.4101 60.3278C98.1211 60.9839 97.8624 61.6399 97.5733 62.296C97.0408 63.3945 96.4474 64.4931 95.9605 65.6069C95.6562 66.3087 95.4432 67.0563 95.1998 67.8039C95.1694 67.8955 95.2302 68.0633 95.2302 68.2311C95.778 67.8497 95.9758 67.2089 96.7213 67.0411C96.6909 67.6056 96.6452 68.0938 96.5996 68.7041C97.4668 68.1701 97.5885 67.1479 98.4558 66.7969C98.3949 67.1021 98.2884 67.3615 98.1667 67.6361C98.045 67.8955 97.8472 68.1243 97.9993 68.5973C98.6232 67.7734 99.2013 67.0563 99.7643 66.3087C99.8099 67.0258 99.5513 67.6819 99.7186 68.4753C100.632 67.6514 100.692 66.4918 101.484 65.6221C101.605 66.6291 101.088 67.514 101.453 68.4295C101.757 68.0023 101.97 67.5598 102.199 67.1479C102.427 66.7206 102.564 66.2629 103.02 65.912C102.959 66.6596 102.579 67.3157 102.716 68.0175C102.868 67.8039 102.99 67.6056 103.066 67.3615C104.587 63.1199 106.109 58.8936 107.6 54.6368C109.213 49.9375 110.749 45.1772 112.621 40.5542C112.682 40.3863 112.743 40.2032 112.803 40.0354C112.012 40.7983 111.662 41.8968 110.673 42.5834C110.597 42.1409 111.039 41.8053 110.673 41.317C110.567 41.4849 110.491 41.5917 110.399 41.6985C109.684 42.4461 108.969 43.1632 108.224 43.8955C108.117 44.0328 107.889 44.2159 107.828 44.1702C107.493 44.0023 107.311 44.2465 107.128 44.399C105.926 45.2687 104.755 46.1536 103.568 47.0538C101.986 48.2439 100.419 49.434 98.8514 50.6088C98.6688 50.7766 98.4558 50.8682 98.2276 51.036C96.7365 48.6253 95.4889 46.1536 93.8152 43.865C93.6783 44.2159 93.587 44.4753 93.4653 44.7347C93.4197 44.7347 93.3588 44.7042 93.2979 44.7042C93.0697 43.392 92.9784 42.0952 92.4763 40.6915C92.0503 41.8815 92.309 43.0411 91.8069 44.0786C91.5634 43.9566 91.3352 43.8498 91.0918 43.6819C91.0309 43.8955 90.9548 44.0023 90.9244 44.1244C89.7529 48.4728 88.1097 52.638 86.4664 56.8491C85.3101 59.7938 84.1994 62.7537 83.0735 65.7137C82.9822 65.9273 82.7996 66.1561 82.967 66.4613C83.2561 66.2782 83.5148 66.0951 83.7734 65.8815C83.819 65.9273 83.8647 65.9578 83.9256 66.0035C83.6365 66.6749 83.3626 67.3767 83.0887 68.0786C83.9712 67.6971 84.0929 66.7206 84.8993 66.3087C84.6711 67.4225 84.169 68.5058 84.1538 69.6653C84.3972 69.5738 84.6102 69.4517 84.7319 69.2839C84.8993 69.1008 84.9906 68.8872 85.1123 68.6736C85.2492 68.46 85.371 68.2464 85.7209 68.1854C85.6144 68.9635 85.0667 69.5585 85.0971 70.3367C86.01 70.1078 86.2991 69.2381 86.9533 68.7194C86.9533 69.5738 86.9533 69.5738 87.1511 69.7874Z" fill="black"/>
<path fill-rule="evenodd" clip-rule="evenodd" d="M214.059 55.8271C214.348 55.5677 214.607 55.3846 214.835 55.2015C218.973 52.028 223.081 48.8545 227.189 45.6809C227.783 45.2079 228.33 44.7044 228.848 44.1857C229.046 44.0026 229.152 43.7432 229.304 43.5296C228.665 43.6974 228.148 44.0178 227.448 44.0178C227.631 43.7585 227.798 43.4991 228.011 43.1939C227.341 43.1482 227.068 43.8195 226.413 43.728C226.413 43.3618 226.413 43.0261 226.413 42.6294C225.577 42.8583 225.074 43.728 224.116 43.7432C224.04 43.3618 224.39 43.0719 224.146 42.6905C223.827 42.9193 223.538 43.1329 223.264 43.316C222.944 43.5296 222.625 43.7127 222.092 43.7585C222.321 43.2702 222.503 42.8888 222.747 42.3548C222.397 42.5684 222.184 42.6752 222.001 42.8278C220.571 43.8805 219.156 44.9333 217.726 45.9861C216.387 46.9625 215.033 47.8932 213.663 48.8545C213.511 48.9765 213.329 49.0223 213.176 49.1138C213.146 49.0986 213.085 49.0681 213.055 49.0375C213.983 46.5811 214.926 44.1094 215.854 41.6682C215.824 41.6377 215.763 41.5919 215.748 41.5767C215.519 41.6987 215.276 41.8055 215.063 41.9581C214.789 42.1412 214.561 42.3853 214.287 42.5684C213.952 42.7973 213.572 42.9803 213.146 42.9803C213.1 42.721 213.055 42.5074 212.979 42.2175C212.583 42.5226 212.248 42.782 211.853 43.0871C211.807 42.6447 211.792 42.3395 211.761 41.9428C211.305 42.2938 211.016 42.6905 210.468 42.7667C210.468 42.37 210.468 41.9886 210.468 41.5767C209.814 41.9734 209.646 42.7973 208.84 42.9041C208.673 42.5074 208.84 42.0191 208.353 41.6835C208.262 41.9123 208.155 42.0802 208.095 42.248C206.375 46.5964 204.61 50.8837 202.967 55.2321C201.217 59.8093 199.559 64.4323 197.885 69.0553C197.809 69.2384 197.794 69.4367 197.718 69.6198C198.433 69.1011 198.464 68.2009 199.255 67.5906C199.224 68.4145 198.677 68.918 198.677 69.6961C199.209 69.2536 199.285 68.5823 199.985 68.1856C199.879 68.8874 199.772 69.4672 199.681 70.1233C200.487 69.6045 200.822 68.7044 201.674 68.3229C201.887 68.9485 201.37 69.5435 201.704 70.2454C202.13 69.5283 202.465 68.8875 202.845 68.2619C203.226 67.6516 203.591 67.026 204.306 66.5378C204.276 67.6516 203.774 68.5976 203.88 69.6198C204.367 68.7959 204.534 67.8499 205.28 67.1634C205.249 67.8652 205.219 68.6128 205.189 69.3299C205.234 69.3299 205.28 69.3299 205.341 69.3604C205.386 69.2231 205.462 69.0858 205.508 68.9637C205.736 68.2466 205.965 67.499 206.193 66.7514C206.756 64.89 207.349 63.0133 207.927 61.1519C207.988 60.9383 208.095 60.7552 208.216 60.4348C209.099 61.3655 209.905 62.1894 210.696 62.9981C212.172 64.5849 213.663 66.1716 215.139 67.7431C215.306 67.911 215.489 68.0483 215.732 68.2619C215.626 67.7889 215.23 67.5143 215.443 67.0718C216.387 67.3312 216.645 68.384 217.634 68.7807C217.224 68.0788 216.843 67.5143 216.782 66.7514C217.467 67.2244 217.756 67.9415 218.426 68.4755C218.456 67.5601 217.634 66.9803 217.756 66.0953C218.699 66.4005 219.049 67.3312 219.917 67.6821C219.825 67.377 219.673 67.1481 219.536 66.8887C219.399 66.6599 219.11 66.4463 219.278 66.0648C220.236 66.4157 220.556 67.4838 221.636 67.7737C221.423 67.2549 221.042 66.8887 221.103 66.3242C221.955 66.7209 222.381 67.5601 223.355 67.9415C222.944 67.2396 222.473 66.7514 222.336 66.0038C222.807 66.0801 223.203 66.1259 223.751 66.2174C220.51 62.6167 216.965 59.5347 214.059 55.8271Z" fill="black"/>
<path fill-rule="evenodd" clip-rule="evenodd" d="M186.093 43.6364C185.287 43.377 184.557 43.4685 183.811 43.5601C182.685 43.6974 181.575 43.8652 180.464 44.033C177.497 44.4755 174.545 45.04 171.7 45.9555C168.459 46.9777 165.416 48.3662 162.86 50.5785C160.715 52.4704 159.057 54.637 158.205 57.3223C157.809 58.6497 157.611 60.0076 157.9 61.3808C158.357 63.5931 159.787 65.0273 161.932 65.8664C164.017 66.7056 166.177 66.8277 168.383 66.4462C169.266 66.3089 170.103 66.0495 171.015 65.8207C170.802 66.6141 170.163 67.2396 170.331 68.2008C170.62 67.8347 170.818 67.4532 171.32 67.5753C171.32 67.8804 170.985 68.1093 171.244 68.4602C171.609 68.0788 171.715 67.4532 172.385 67.4074C172.415 67.9872 172.202 68.5823 172.415 69.1315C172.887 68.7654 173.009 68.1093 173.708 68.0177C173.785 68.5365 173.648 69.04 174.058 69.513C174.287 69.1621 174.484 68.8416 174.743 68.5365C174.971 68.2313 175.169 67.8804 175.58 67.7431C175.626 68.0635 175.671 68.3534 175.732 68.7654C175.884 68.5365 175.96 68.445 175.991 68.3382C177.436 65.6376 178.897 62.9218 180.297 60.1907C181.301 58.1767 182.229 56.1322 183.187 54.1182C183.294 53.9046 183.34 53.691 183.416 53.4621C183.05 53.5537 182.761 53.63 182.472 53.691C182.442 53.3859 182.396 53.1265 182.381 52.8671C181.62 53.1265 181.499 54.0114 180.707 54.1792C180.768 53.8741 180.799 53.5995 180.875 53.2638C179.947 53.4927 179.658 54.4997 178.684 54.4997C178.714 54.2708 178.745 54.0724 178.775 53.8741C178.729 53.8741 178.684 53.8283 178.638 53.7978C178.151 54.1487 177.68 54.4691 177.147 54.8506C177.056 54.6217 177.01 54.4691 176.934 54.3166C176.584 54.5912 176.249 54.8506 175.93 55.0794C174.926 55.8728 173.967 56.6662 172.933 57.4138C171.213 58.6497 169.251 59.3515 167.044 59.4736C166.208 59.5499 165.645 59.0921 165.599 58.3293C165.584 58.0699 165.629 57.7953 165.69 57.5511C165.979 56.4984 166.603 55.705 167.455 55.0031C168.596 54.0724 169.92 53.4164 171.305 52.8824C174.119 51.8143 177.071 51.1583 180.068 50.6853C180.692 50.5937 181.331 50.5022 182.046 50.3801C181.864 50.1665 181.757 50.0292 181.62 49.8461C182.335 49.7546 182.974 49.7546 183.613 49.4037C183.385 49.2664 183.233 49.1748 183.02 49.0222C183.963 48.4424 185.181 48.7476 186.048 47.9542C185.241 47.6948 184.465 48.3814 183.735 47.7864C184.039 47.4812 184.405 47.4202 184.739 47.3439C185.211 47.2524 185.683 47.1761 186.124 47.0388C186.291 47.0235 186.398 46.9014 186.626 46.7641C185.622 46.5963 184.709 46.8557 183.826 46.5353C184.024 46.3522 184.222 46.2149 184.435 46.1386C184.815 46.0013 185.226 45.9097 185.622 45.8182C186.185 45.6503 186.748 45.4978 187.295 45.2994C187.432 45.2536 187.539 45.1163 187.661 45.0248C187.63 44.979 187.615 44.9332 187.584 44.8875C187.006 44.9638 186.428 45.0095 185.85 45.1011C185.272 45.1774 184.709 45.2842 184.07 45.0553C184.572 44.3229 185.667 44.4603 186.093 43.6364Z" fill="black"/>
<path fill-rule="evenodd" clip-rule="evenodd" d="M62.6396 64.6458C63.3091 65.0273 62.5484 65.424 62.7005 65.8207C62.8527 65.8359 63.0048 65.8664 63.2026 65.8969C63.1722 66.1105 63.1722 66.2784 63.1417 66.4767C63.6438 66.3852 63.9481 65.8664 64.5263 66.0343C64.5872 66.8276 63.9633 67.4837 63.9786 68.3687C64.3285 68.2008 64.6024 68.0635 64.9219 67.9262C65.0588 68.506 64.2372 68.8874 64.6937 69.4367C65.7131 68.7653 66.702 68.1093 67.7214 67.4074C67.7519 67.5905 67.7823 67.6668 67.8127 67.8499C68.1018 67.621 68.3757 67.4379 68.5887 67.1786C69.2429 66.4615 69.8667 65.6833 70.5058 64.9357C71.1448 64.1881 71.7077 63.4405 72.362 62.7234C72.9858 62.0521 73.8226 61.9605 74.6594 62.4182C74.8877 62.5403 75.0094 62.6776 74.9333 62.937C74.7964 63.3795 74.6899 63.8524 74.5073 64.2949C74.1573 65.2104 73.7922 66.0953 73.4422 66.9955C73.351 67.2549 73.214 67.5142 73.3357 67.8346C73.5488 67.6058 73.6705 67.3464 73.8226 67.087C73.99 66.8277 74.0356 66.5225 74.4616 66.3852C74.3095 67.0565 74.1573 67.6973 74.0204 68.3229C74.6899 67.8957 74.8116 67.1023 75.5267 66.7514C75.5115 67.1481 75.4354 67.5295 75.3593 67.8957C75.2832 68.2924 75.1159 68.6738 75.405 69.0705C75.9375 68.7501 75.8766 67.9567 76.6222 67.7431C76.6222 68.0635 76.6222 68.3229 76.6222 68.7043C76.9721 68.2161 77.0178 67.6821 77.5351 67.3311C77.5959 67.8957 77.5046 68.3992 77.7633 68.9484C78.0676 68.5212 78.3414 68.2313 78.7066 67.7736C78.7523 68.1398 78.7675 68.3839 78.7979 68.5975C79.1326 68.6433 79.1631 68.4144 79.2543 68.2466C79.4521 67.8194 79.6347 67.3769 79.8477 66.965C79.9542 66.7819 80.0303 66.5225 80.3346 66.5225C80.5172 67.087 80.152 67.6668 80.5324 68.2313C80.5933 68.1093 80.6389 68.0635 80.6541 68.0177C82.0995 59.9008 83.6667 51.7991 85.4772 43.7431C85.4772 43.7431 85.4468 43.7126 85.4468 43.6974C85.4164 43.6669 85.4164 43.6669 85.3555 43.6211C85.1425 43.7126 84.9295 43.8042 84.7013 43.8957C84.7165 43.5448 84.823 43.2702 84.9599 42.965C85.1882 42.5531 85.4012 42.1259 85.6142 41.6986C85.7511 41.3935 85.7968 41.1189 85.6598 40.7222C84.5644 41.5156 84.047 42.7972 82.769 43.438C82.7081 43.0413 83.195 42.7361 82.8603 42.3242C81.9626 43.0413 81.4605 44.0941 80.3498 44.6128C80.3498 44.384 80.3498 44.2466 80.3498 43.9567C80.076 44.1856 79.8782 44.3077 79.726 44.4908C77.4742 46.6115 75.3289 48.8544 73.3814 51.2345C69.8059 55.6287 66.2912 60.0533 62.7614 64.478C62.7157 64.4933 62.6853 64.5543 62.6396 64.6458Z" fill="black"/>
<path fill-rule="evenodd" clip-rule="evenodd" d="M200.746 42.6597C200.533 42.6749 200.411 42.6597 200.289 42.6749C198.768 42.9496 197.414 43.5904 196.135 44.3532C194.507 45.3297 192.879 46.3367 191.267 47.3437C190.841 47.6183 190.43 47.8777 190.08 48.2134C189.547 48.6864 189.03 49.1746 188.619 49.7239C187.615 51.036 187.493 53.3246 188.817 54.7436C189.243 55.2165 189.684 55.6743 190.095 56.1625C190.415 56.5897 190.749 57.0322 191.008 57.5204C191.373 58.1765 191.282 58.8478 190.765 59.4123C190.293 59.9311 189.821 60.4193 189.243 60.7855C188.102 61.5331 186.93 62.2502 185.683 62.8605C184.085 63.6844 182.396 64.3557 180.738 65.1033C180.525 65.1949 180.327 65.317 180.114 65.4085C180.479 65.5306 180.814 65.5306 181.134 65.5306C181.453 65.5458 181.788 65.5763 182.107 65.6068C182.123 65.6831 182.138 65.7289 182.153 65.7747C181.879 65.9425 181.59 66.1256 181.316 66.2629C180.829 66.4918 180.327 66.6901 179.856 66.919C179.627 67.0563 179.369 67.1936 179.323 67.5903C179.779 67.453 180.145 67.2852 180.525 67.1936C180.905 67.1173 181.316 66.9342 181.773 67.1784C181.088 67.8344 180.145 68.0938 179.46 68.7956C180.069 68.8872 180.525 68.7804 180.997 68.6278C181.377 68.5058 181.773 68.399 182.153 68.2769C182.275 68.2311 182.442 68.2921 182.579 68.2921C182.412 69.0703 181.347 69.1618 181.301 70.062C182.914 69.589 184.329 68.7499 186.094 68.6888C185.637 69.2686 184.907 69.4822 184.557 70.1536C184.876 70.062 185.105 70.0315 185.302 69.94C186.368 69.467 187.493 69.1008 188.467 68.4905C190.81 67.0868 193.123 65.6221 195.405 64.1269C196.075 63.6997 196.653 63.1504 197.201 62.5859C197.596 62.1587 197.931 61.7009 198.205 61.2127C198.783 60.1447 198.859 59.0156 198.266 57.9476C197.824 57.1542 197.292 56.4066 196.835 55.6285C196.364 54.8351 195.862 54.0722 195.496 53.2483C195.055 52.2719 195.268 51.3411 196.181 50.6546C196.942 50.09 197.748 49.556 198.57 49.0983C199.498 48.5643 200.457 48.1218 201.415 47.6031C202.221 47.1606 203.013 46.6419 203.667 45.9705C203.789 45.8485 203.895 45.6959 204.032 45.4823C203.728 45.467 203.515 45.406 203.271 45.3907C203.56 44.811 204.215 44.5516 204.397 43.8497C203.91 43.8955 203.515 43.926 202.997 43.9871C203.195 43.6819 203.347 43.4225 203.591 43.0564C202.434 43.2395 201.415 43.4225 200.259 43.6209C200.441 43.2242 200.578 42.9648 200.746 42.6597Z" fill="black"/>
<path fill-rule="evenodd" clip-rule="evenodd" d="M230.993 67.0566C231.039 67.7279 231.1 68.3229 231.16 68.8722C231.647 68.506 231.693 67.8195 232.362 67.5906C232.515 68.2009 232.302 68.857 232.712 69.4825C232.819 69.2079 232.941 68.9943 233.017 68.7807C233.397 67.7584 233.823 66.7209 234.143 65.6834C235.375 61.6707 236.577 57.658 237.825 53.6148C238.859 50.2124 239.818 46.7947 240.594 43.316C240.624 43.0566 240.746 42.7973 240.685 42.4921C240.198 42.7057 240.198 43.3618 239.605 43.377C239.513 42.9346 239.574 42.4463 239.346 42.0191C238.92 42.3395 239.179 43.0414 238.433 43.2397C238.464 42.721 238.479 42.2785 238.509 41.7903C237.825 42.2327 238.022 43.1939 237.201 43.5144C237.246 42.9041 237.292 42.4006 237.368 41.7445C236.638 42.3548 236.775 43.316 235.999 43.7737C235.786 43.0566 236.273 42.309 235.831 41.5767C235.345 42.2938 235.071 43.0871 234.295 43.6517C234.31 42.9498 234.447 42.3395 234.082 41.6682C233.914 42.0191 233.838 42.248 233.701 42.4921C233.473 42.8735 233.214 43.2092 232.971 43.5601C232.941 43.5754 232.865 43.5754 232.804 43.6059C232.773 43.3923 232.743 43.2245 232.712 43.0414C232.545 43.2245 232.454 43.4076 232.393 43.6059C231.586 46.1691 230.78 48.7477 229.958 51.2804C228.361 56.4221 226.748 61.5334 225.501 66.7667C225.409 67.1786 225.303 67.6364 225.166 68.2314C225.805 67.7432 226.003 67.0413 226.763 66.6904C226.672 67.2244 226.596 67.6516 226.535 68.0941C226.961 68.0636 226.9 67.5296 227.296 67.5753C227.463 68.1093 227.144 68.6739 227.478 69.2384C228.163 68.6586 228.452 67.7737 229.35 67.316C229.319 67.9873 229.03 68.5823 229.35 69.2384C229.928 68.5518 230.05 67.5906 230.993 67.0566Z" fill="black"/>
<path d="M240.913 16.5696C240.761 18.3852 240.259 20.094 239.483 21.6808C261.423 30.6217 274.979 42.4157 274.979 55.1404C274.979 82.2986 213.161 105.231 139.992 105.231C66.8239 105.231 5.02092 82.2833 5.02092 55.1251C5.02092 27.9669 66.8391 5.03495 140.008 5.03495C165.264 5.03495 189.152 7.76603 209.631 12.4653C209.981 10.6802 210.666 9.01714 211.609 7.52191C190.765 2.73108 166.345 0 140.008 0C61.4987 0 0 24.2136 0 55.1251C0 86.0367 61.4987 110.25 140.008 110.25C218.517 110.25 280.015 86.0367 280.015 55.1251C280 39.9745 265.226 26.4411 240.913 16.5696Z" fill="black"/>
<path d="M237.505 10.3904C236.82 8.89521 235.861 7.55255 234.629 6.39299C233.397 5.24868 231.966 4.33323 230.369 3.70768C228.71 3.05161 226.961 2.7312 225.165 2.7312C223.37 2.7312 221.605 3.06686 219.962 3.70768C218.364 4.33323 216.934 5.24868 215.702 6.39299C214.469 7.55255 213.496 8.89521 212.826 10.3904C212.126 11.9467 211.761 13.5945 211.761 15.2881C211.761 16.9816 212.111 18.6294 212.826 20.1857C213.511 21.6809 214.469 23.0236 215.702 24.1832C216.934 25.3275 218.364 26.2429 219.962 26.8685C221.62 27.5245 223.37 27.8449 225.165 27.8449C226.961 27.8449 228.726 27.5093 230.369 26.8685C231.966 26.2429 233.397 25.3275 234.629 24.1832C235.861 23.0236 236.835 21.6809 237.505 20.1857C238.205 18.6294 238.57 16.9816 238.57 15.2881C238.57 13.5945 238.205 11.9467 237.505 10.3904ZM225.165 25.2664C219.262 25.2664 214.469 20.796 214.469 15.2881C214.469 9.79539 219.262 5.30971 225.165 5.30971C231.069 5.30971 235.861 9.78014 235.861 15.2881C235.861 20.7807 231.053 25.2664 225.165 25.2664Z" fill="black"/>
<path d="M228.665 17.0883C228.345 16.4628 227.934 15.944 227.402 15.5778C228.604 14.9981 229.227 14.0979 229.227 12.9078C229.227 11.9161 228.756 11.1227 227.828 10.5582C226.93 10.0089 225.713 9.71899 224.207 9.71899C223.218 9.71899 222.076 9.81054 220.814 10.0089L220.646 10.0394V20.8722H222.7V16.2339H224.572C225.348 16.2339 225.971 16.5848 226.474 17.3019C226.991 18.0496 227.371 19.1939 227.599 20.7043L227.63 20.8722H229.684L229.638 20.6433C229.364 19.0108 229.03 17.8207 228.665 17.0883ZM224.496 14.6777H222.7V11.3821C223.111 11.3515 223.613 11.3363 224.207 11.3363C226.245 11.3363 227.234 11.8855 227.234 12.9993C227.234 14.1284 226.337 14.6777 224.496 14.6777Z" fill="black"/>
</g>
<defs>
<clipPath id="clip0_105_199">
<rect width="280" height="110.265" fill="white"/>
</clipPath>
</defs>
</svg>
