<?xml version="1.0" standalone="no"?>
<!DOCTYPE svg PUBLIC "-//W3C//DTD SVG 1.1//EN" "http://www.w3.org/Graphics/SVG/1.1/DTD/svg11.dtd" >
<svg xmlns="http://www.w3.org/2000/svg" xmlns:xlink="http://www.w3.org/1999/xlink" version="1.1">
<metadata>
Created by FontForge 20190801 at Wed Oct 27 02:19:35 2021
 By root
Copyright \(c\) 2021 by Kamengski Designed And Manufactured by Tegami Type Foundry. All Right Reserved
</metadata>
<defs>
<font id="KamengskiDraft01.2-Display" horiz-adv-x="600" >
  <font-face 
    font-family="Kamengski Draft 01.2 Display"
    font-weight="700"
    font-style="italic"
    font-stretch="normal"
    units-per-em="1000"
    panose-1="0 0 0 0 0 0 0 0 0 0"
    ascent="800"
    descent="-200"
    x-height="685"
    cap-height="825"
    bbox="-41.8045 -256.16 1324 976"
    underline-thickness="50"
    underline-position="-125"
    slope="-12"
    unicode-range="U+0020-2212"
  />
<missing-glyph horiz-adv-x="500" 
d="M410 800v-1000h-317v1000h317zM167 -131h166v33h-102l70 47h32v33h-166v-33h70l-70 -47v-33zM167 5h166v113h-166v-113zM167 178h166v113h-100v-56h34v23h33v-47h-100v80h-33v-113zM167 313h166v100h-33v-66h-133v-34zM167 370h100v70h66v33h-166v-33h66v-37h-66v-33z
M167 500h166v34h-66v70h-100v-104zM167 630h166v33h-66v37h66v33h-165v-33h65v-37h-66v-33zM200 38v47h100v-47h-100zM200 534v36h33v-36h-33z" />
    <glyph glyph-name=".notdef" horiz-adv-x="500" 
d="M410 800v-1000h-317v1000h317zM167 -131h166v33h-102l70 47h32v33h-166v-33h70l-70 -47v-33zM167 5h166v113h-166v-113zM167 178h166v113h-100v-56h34v23h33v-47h-100v80h-33v-113zM167 313h166v100h-33v-66h-133v-34zM167 370h100v70h66v33h-166v-33h66v-37h-66v-33z
M167 500h166v34h-66v70h-100v-104zM167 630h166v33h-66v37h66v33h-165v-33h65v-37h-66v-33zM200 38v47h100v-47h-100zM200 534v36h33v-36h-33z" />
    <glyph glyph-name="space" unicode=" " horiz-adv-x="240" 
 />
    <glyph glyph-name="space" unicode="&#xa0;" horiz-adv-x="240" 
 />
    <glyph glyph-name="A" unicode="A" horiz-adv-x="811" 
d="M386 720l44 72c16 -7 2 -52 23 -52c19 0 36 27 54 67c19 0 11 -55 27 -55c22 0 40 100 62 100l20 -132l109 -685l9 -51c-23 0 -42 39 -52 39c-12 0 -6 -105 -15 -105c-11 0 -51 97 -72 97c-20 0 -19 -64 -26 -64s-32 55 -43 55c-21 0 -8 -68 -37 -74l-17 103l-15 91h-141
l-93 -159l-40 -69c-14 16 -18 64 -25 69c-9 7 -80 -81 -91 -73c-10 7 16 95 10 99c-8 5 -96 -79 -103 -72c-3 3 45 84 41 90c-6 9 -34 -13 -46 -3l32 55z" />
    <glyph glyph-name="B" unicode="B" horiz-adv-x="919" 
d="M238 730c73 22 179 38 284 38c180 0 357 -48 357 -202c0 -85 -54 -142 -134 -173c59 -19 131 -77 131 -188c0 -198 -230 -264 -456 -264c-131 0 -269 22 -343 48l-69 23c4 24 55 18 55 29c0 15 -75 49 -75 59c0 11 92 -4 95 11c3 13 -64 43 -64 52c0 10 73 0 73 9
c0 5 -43 32 -36 51l91 -33l68 318l-21 -10v0c-17 -8 -35 -17 -48 -25c-6 33 34 53 34 69c0 13 -73 -14 -73 -2c0 23 77 55 77 69c0 13 -84 -8 -84 6c0 13 88 35 88 50c0 14 -50 -9 -78 9c38 22 95 45 128 56zM394 148c123 -3 226 23 226 89c0 52 -63 62 -193 64zM453 425
c114 7 157 41 157 77c0 42 -55 59 -128 59z" />
    <glyph glyph-name="C" unicode="C" horiz-adv-x="960" 
d="M57 287c0 295 316 533 867 502l77 -4c-3 -17 -53 -22 -53 -35c0 -16 79 -10 79 -21s-94 -19 -94 -33c0 -10 54 -14 54 -19c0 -6 -79 -19 -79 -30c0 -10 63 -15 63 -24c0 -10 -89 -19 -89 -30c0 -8 37 -10 37 -33h-91c-194 0 -506 -65 -506 -243c0 -149 219 -169 418 -97
c31 13 66 29 89 43c14 -18 -44 -55 -40 -65c5 -13 124 37 124 28c0 -41 -98 -64 -84 -80s98 22 98 7c0 -20 -105 -58 -96 -72c4 -6 62 0 82 -29c-29 -15 -78 -36 -118 -49c-414 -144 -738 -15 -738 284z" />
    <glyph glyph-name="D" unicode="D" horiz-adv-x="1035" 
d="M1016 352c-64 -359 -512 -446 -924 -389l-3 1h-3l-69 14c6 24 62 27 62 38s-66 31 -66 41c0 12 82 7 88 16s-58 46 -58 55c0 12 95 -8 95 1c0 5 -40 23 -36 39h74h7l71 344c-22 -6 -52 -22 -78 -39c-6 36 26 49 26 67c0 14 -84 -23 -84 -9c0 25 85 59 85 74s-88 -8 -88 7
c0 14 88 41 88 58c0 15 -81 -5 -88 25c36 15 68 25 101 35c510 116 856 -64 800 -378zM441 179c168 18 297 67 316 199c16 112 -89 164 -240 168z" />
    <glyph glyph-name="E" unicode="E" horiz-adv-x="797" 
d="M161 750h708c0 -23 -60 -25 -60 -39c0 -13 65 -15 62 -26c-4 -16 -73 -18 -73 -33c0 -12 63 -21 63 -34c0 -17 -106 -3 -65 -37l31 -26h-451l-22 -101h420c-5 -28 -67 -30 -67 -41c0 -14 52 -24 52 -35c0 -13 -63 -12 -63 -22c0 -7 54 -19 54 -26c0 -15 -50 -11 -50 -21
c0 -12 47 -16 54 -41h-439l-27 -123h429c0 -24 -54 -25 -54 -35c0 -9 60 -27 60 -41c0 -8 -69 0 -69 -16c0 -11 22 -19 59 -27c-14 -28 -67 -18 -67 -36c0 -13 24 -17 40 -40h-695z" />
    <glyph glyph-name="F" unicode="F" horiz-adv-x="749" 
d="M161 750h678c0 -23 -72 -25 -72 -39c0 -13 58 -16 58 -26s-69 -16 -69 -31c0 -11 59 -15 59 -25c0 -12 -68 -17 -68 -35c0 -12 36 -11 36 -39h-407l-25 -127h364c-5 -32 -69 -25 -69 -41c0 -14 55 -24 55 -35c0 -13 -59 -18 -59 -28c0 -7 51 -13 51 -20
c0 -15 -47 -11 -47 -21c0 -13 43 -11 50 -41h-383l-42 -207l-17 -85c-37 0 -32 61 -49 61c-19 0 -51 -105 -61 -105c-17 0 -6 87 -15 87c-16 0 -50 -79 -59 -79c-12 0 -4 79 -15 79c-18 0 -33 -66 -61 -66l22 108z" />
    <glyph glyph-name="G" unicode="G" horiz-adv-x="952" 
d="M817 -69c-38 6 -24 58 -39 58c-20 0 -50 -86 -64 -86c-13 0 -9 72 -26 72c-18 0 -42 -72 -72 -72c6 29 11 63 -3 63c-13 0 -27 -31 -52 -31l19 84c-55 -33 -119 -42 -183 -42c-182 0 -342 123 -336 338c10 342 403 499 864 499h73c0 -16 -49 -27 -49 -39
c0 -17 101 -6 101 -17s-109 -25 -109 -39c0 -10 57 -13 57 -19s-75 -20 -75 -31c0 -10 67 -15 67 -25s-85 -19 -85 -30c0 -8 41 -11 41 -34h-81c-262 -1 -543 -90 -543 -250c0 -64 45 -109 115 -109c105 0 192 98 220 163l13 30c25 5 19 -67 34 -67c18 0 31 92 43 92
c8 0 21 -50 31 -50c13 0 35 75 50 75c10 0 -3 -93 23 -93c17 0 32 41 67 41z" />
    <glyph glyph-name="H" unicode="H" horiz-adv-x="827" 
d="M615 720l18 77c30 0 21 -59 35 -59s47 62 57 62s6 -68 20 -68c26 0 51 68 61 68c12 0 2 -66 19 -66c26 0 28 45 59 45l-13 -59l-153 -720l-20 -93c-28 0 -12 83 -30 83c-11 0 -30 -56 -42 -56c-9 0 -7 56 -23 56c-9 0 -55 -87 -70 -87c-17 0 4 97 -25 97
c-9 0 -44 -57 -57 -53l11 53l60 282h-204l-49 -232l-26 -120c-38 0 -28 63 -48 63c-11 0 -57 -87 -67 -87c-17 0 -6 84 -15 84c-16 0 -37 -56 -46 -56c-12 0 -8 56 -19 56c-18 0 -34 -64 -62 -64l16 74l151 711l14 68c31 0 14 -45 40 -45c17 0 35 66 47 66
c10 0 6 -68 32 -68c14 0 39 68 49 68s17 -62 31 -62s30 59 60 59l-15 -77l-52 -243h204l50 234l1 4z" />
    <glyph glyph-name="I" unicode="I" horiz-adv-x="368" 
d="M241 -72c-14 4 -26 67 -41 67c-8 0 -43 -92 -55 -92s0 92 -21 92c-18 0 -34 -70 -63 -77c11 60 10 90 -5 90c-18 0 -36 -73 -66 -73l16 76l146 686l20 103c33 0 13 -53 32 -53c25 0 46 78 59 78c12 0 1 -80 13 -80c11 0 43 70 65 70c11 0 -13 -78 7 -78c21 0 35 52 80 52
l-15 -69l-151 -709z" />
    <glyph glyph-name="J" unicode="J" horiz-adv-x="765" 
d="M56 351c29 0 22 -44 41 -44c23 0 38 66 49 66s10 -68 30 -68s41 68 52 68c10 0 17 -62 31 -62s33 58 63 58l-21 -95c-15 -66 15 -105 62 -105c43 0 78 19 98 115l90 426l19 85c30 0 22 -59 36 -59s47 62 57 62c11 0 3 -68 23 -68s48 68 59 68s-2 -66 21 -66
c19 0 27 45 56 45l-17 -77l-93 -436c-32 -148 -127 -290 -364 -290c-207 0 -327 117 -300 320z" />
    <glyph glyph-name="K" unicode="K" horiz-adv-x="877" 
d="M155 720l15 67c26 0 25 -45 39 -45c27 0 44 66 58 66c10 0 8 -71 24 -71c15 0 50 74 61 74s-8 -84 7 -84c18 0 32 52 65 52l-22 -102l-45 -211l223 239l86 95c12 -10 10 -22 0 -63c-7 -28 87 40 118 65c16 -16 -26 -72 -6 -72c15 0 21 24 58 42c24 11 49 17 73 21
c7 -15 -77 -63 -63 -73c16 -11 52 30 87 13l-67 -67l-279 -298l148 -248l70 -116c-24 -12 -74 39 -82 35c-11 -8 28 -84 20 -89c-16 -9 -75 75 -84 67c-13 -11 32 -106 19 -113c-19 -10 -77 102 -89 93c-10 -6 29 -76 0 -95l-63 99l-197 331l-75 -353l-16 -83
c-27 0 -21 64 -42 64c-19 0 -46 -81 -65 -81c-16 0 -5 81 -17 81c-21 0 -44 -84 -59 -81c-19 4 7 99 -9 99s-32 -58 -60 -58l20 99z" />
    <glyph glyph-name="L" unicode="L" horiz-adv-x="671" 
d="M156 720l15 74c15 4 15 -64 24 -64c8 0 19 38 25 38c7 0 14 -37 20 -37c11 0 38 87 48 87c17 0 6 -84 15 -84c16 0 37 56 46 56c12 0 8 -56 19 -56c18 0 32 64 60 64l-27 -132l-111 -521h317c-13 -27 -49 -25 -49 -35c0 -9 29 -7 54 -41c-27 4 -62 0 -62 -16
c0 -11 20 -19 53 -27c-12 -28 -60 -18 -60 -36c0 -13 22 -17 36 -40h-587z" />
    <glyph glyph-name="M" unicode="M" horiz-adv-x="850" 
d="M145 720l21 97c30 -7 6 -53 25 -53c10 0 17 40 27 25l46 -69l189 -280l320 280l42 37c13 0 8 -21 18 -21c16 0 27 62 48 62c-3 -21 -4 -45 6 -45s14 59 39 64l-23 -98l-150 -710l-14 -68c-19 0 -12 55 -29 55c-14 0 -47 -65 -56 -65c-10 0 -11 64 -27 64
c-25 0 -56 -79 -69 -79c-6 0 2 72 -14 72c-11 0 -34 -36 -58 -32l12 53l47 201l-137 -106h-9l-98 143l-48 -209l-30 -127c-13 0 -25 58 -38 58c-19 0 -50 -81 -60 -81c-14 0 -3 81 -23 81c-16 0 -44 -81 -57 -75c-15 7 8 94 -9 94s-36 -50 -56 -45l20 95z" />
    <glyph glyph-name="N" unicode="N" horiz-adv-x="786" 
d="M145 720l21 97c30 -7 11 -53 25 -53c12 0 8 33 16 23l60 -68l256 -289l56 268l21 100c19 0 14 -61 24 -61c14 0 39 69 48 69c6 0 3 -66 19 -66c25 0 33 72 44 72c8 0 5 -66 23 -66c13 0 28 58 36 58c7 0 8 -49 23 -49c11 0 22 37 39 37l-16 -72l-153 -720l-21 -97
c-22 5 -2 64 -12 64c-9 0 -16 -18 -21 -39c-19 0 -10 56 -24 56c-9 0 -4 -18 -17 -18l-27 35l-256 287l-51 -240l-20 -92c-26 0 -19 48 -37 48c-13 0 -28 -79 -38 -79c-14 0 -10 75 -24 75c-15 0 -32 -67 -46 -67c-11 0 -3 71 -14 71c-15 0 -31 -82 -46 -82
c-11 0 5 90 -10 90c-6 0 -13 -24 -34 -24l15 70z" />
    <glyph glyph-name="O" unicode="O" horiz-adv-x="1150" 
d="M1137 416c0 -251 -235 -393 -408 -443c-260 -74 -671 -18 -671 320c0 154 84 297 271 392c339 173 808 84 808 -269zM329 252c43 -103 207 -108 332 -66c120 40 215 115 215 215c0 165 -253 206 -431 92c-98 -63 -150 -158 -116 -241z" />
    <glyph glyph-name="P" unicode="P" horiz-adv-x="932" 
d="M250 730c104 27 257 43 344 43c219 0 353 -102 353 -289c0 -243 -256 -338 -535 -309l-37 -175l-17 -83c-26 0 -23 62 -34 62c-13 0 -60 -93 -68 -93c-13 0 5 94 -6 94c-9 0 -55 -75 -68 -75c-15 0 5 85 -11 85c-8 0 -42 -79 -69 -71l17 81l109 512l-15 -4l-96 -36
c-13 36 73 64 73 79c0 17 -104 -7 -104 8c0 20 118 40 118 60c0 18 -95 1 -95 16c0 10 92 29 92 45c0 10 -40 11 -43 27zM458 389c132 -11 229 13 229 88c0 57 -54 82 -148 82c-14 0 -30 -1 -46 -2z" />
    <glyph glyph-name="Q" unicode="Q" horiz-adv-x="1175" 
d="M596 251l-53 69c20 17 68 -17 77 -9c7 7 -44 84 -36 91c10 8 88 -65 96 -56c6 6 -31 77 -24 84c12 12 65 -48 75 -40c12 9 0 40 7 53l40 -51l67 -85c20 28 31 59 31 94c0 165 -253 206 -431 92c-98 -63 -150 -158 -116 -241c42 -100 197 -108 321 -70zM58 293
c0 154 84 297 271 392c339 173 808 84 808 -269c0 -127 -60 -226 -142 -300l49 -64l54 -70c-20 -17 -68 17 -77 9c-7 -7 47 -79 36 -91c-7 -8 -88 65 -96 56c-6 -6 40 -89 32 -97c-9 -9 -73 61 -83 53c-12 -9 0 -40 -7 -53l-44 57l-63 80c-23 -9 -45 -17 -67 -23
c-260 -74 -671 -18 -671 320z" />
    <glyph glyph-name="R" unicode="R" horiz-adv-x="1015" 
d="M271 731c302 73 693 79 693 -233c0 -131 -79 -229 -196 -279l144 -156l35 -39c-33 -17 -53 13 -67 0c-19 -19 44 -64 44 -103c-25 17 -51 26 -68 45c-19 21 -34 37 -47 30c-14 -8 34 -110 22 -116c-10 -5 -90 92 -100 84c-12 -10 25 -57 12 -74l-63 71l-216 231
c-10 2 -20 4 -30 7l-42 -199l-30 -147c-28 4 -24 98 -32 101c-14 7 -34 -87 -47 -81c-12 5 -24 92 -33 96c-10 4 -31 -89 -43 -84c-7 3 -7 112 -25 112c-11 0 -34 -82 -62 -70l19 86l106 498l-15 -3l-96 -36c-13 36 73 64 73 79c0 17 -55 3 -55 17c0 17 69 26 69 46
c0 18 -122 -9 -122 9c0 19 122 51 122 60c0 13 -43 8 -46 24zM471 373c121 -25 233 16 233 107c0 73 -73 90 -193 78z" />
    <glyph glyph-name="S" unicode="S" horiz-adv-x="718" 
d="M286 306c-15 65 -94 118 -94 238c0 200 346 301 463 301c29 0 -39 -33 -33 -45s120 32 127 19s-84 -49 -77 -57c6 -8 108 19 114 5c8 -18 -83 -34 -78 -47c3 -9 75 0 93 -31c-221 -45 -298 -83 -298 -165c0 -75 88 -138 113 -247c47 -208 -306 -390 -466 -415
c29 40 73 73 62 80c-15 9 -127 -55 -182 -55c4 18 98 72 79 78s-134 -37 -150 -29c-13 6 136 75 126 95c-4 8 -51 -14 -120 9c205 76 345 164 321 266z" />
    <glyph glyph-name="T" unicode="T" horiz-adv-x="820" 
d="M903 750c0 -23 -70 -25 -70 -39c0 -13 56 0 56 -26c-46 -8 -66 -16 -66 -31c0 -16 25 -25 57 -25c0 -30 -96 -14 -59 -48l28 -26h-232l-117 -553l-20 -93c-28 0 -12 83 -30 83c-11 0 -30 -56 -42 -56c-9 0 -7 56 -23 56c-17 0 -52 -84 -64 -84c-19 0 -2 94 -26 94
c-16 0 -33 -62 -62 -53l11 53l117 553h-253c0 23 66 26 66 43c0 15 -53 25 -53 37c0 13 57 19 57 29c0 7 -49 14 -49 21c0 16 45 12 45 22c0 14 -41 12 -48 43h777z" />
    <glyph glyph-name="U" unicode="U" horiz-adv-x="819" 
d="M153 690l14 67c30 0 18 -45 37 -45c24 0 39 66 51 66s11 -68 32 -68c20 0 42 68 53 68s18 -62 32 -62c15 0 25 59 57 59l-20 -86l-99 -445c-12 -52 12 -105 85 -105c58 0 100 30 119 115l96 438l20 85c31 0 21 -59 37 -59c17 0 36 62 49 62c14 0 4 -68 25 -68
s50 68 62 68c11 0 -3 -66 21 -66c20 0 28 45 58 45l-18 -77l-99 -448c-35 -160 -151 -290 -387 -290c-242 0 -362 135 -317 335z" />
    <glyph glyph-name="V" unicode="V" horiz-adv-x="768" 
d="M460 0l-45 -72c-17 7 -2 52 -24 52c-20 0 -37 -27 -56 -67c-20 0 -11 55 -28 55c-23 0 -50 -79 -73 -79l-14 111l-89 685l-7 53c23 0 39 -39 49 -39c12 0 6 105 15 105c11 0 51 -97 72 -97c20 0 19 64 26 64s32 -55 43 -55c21 0 12 66 41 72l14 -103l34 -287l176 320h-1
l45 78c14 -11 7 -67 22 -67c16 0 77 83 88 71c6 -6 -24 -89 -15 -94c13 -7 92 70 99 63c5 -5 -46 -76 -37 -82s32 11 46 0l-47 -85l-325 -588l-2 -3z" />
    <glyph glyph-name="W" unicode="W" horiz-adv-x="1250" 
d="M460 0l-45 -72c-17 7 -2 52 -24 52c-20 0 -37 -27 -56 -67c-20 0 -11 55 -28 55c-23 0 -50 -79 -73 -79l-14 111l-89 685l-7 53c23 0 39 -39 49 -39c12 0 6 105 15 105c11 0 51 -97 72 -97c20 0 19 64 26 64s32 -55 43 -55c21 0 12 66 41 72l14 -103l35 -293l183 316l4 6
l3 6l47 80c17 -7 12 -61 34 -61c20 0 37 27 56 67c20 0 11 -55 28 -55c23 0 50 92 73 92l14 -123l37 -321l178 326l45 78c20 -3 16 -65 28 -70c17 -7 68 74 82 74c17 0 -18 -93 -9 -98c8 -5 83 78 90 71c3 -3 -42 -82 -31 -89c10 -6 27 16 43 3l-47 -85l-329 -595l-2 -3
l-7 -11l-45 -72c-17 7 -2 52 -24 52c-20 0 -37 -27 -56 -67c-20 0 -11 55 -28 55c-23 0 -50 -79 -73 -79l-14 111l-42 339z" />
    <glyph glyph-name="X" unicode="X" horiz-adv-x="896" 
d="M701 784l44 57c19 -18 1 -51 9 -56c10 -6 50 25 81 50c16 -16 -24 -75 -4 -75c15 0 21 24 58 42c24 11 49 17 73 21c7 -15 -77 -63 -63 -73c16 -11 52 35 87 18l-87 -108l-246 -326l76 -237l55 -174c-35 -11 -65 72 -74 68c-14 -6 18 -110 2 -97c-42 33 -64 84 -74 79
c-17 -8 15 -113 -6 -108c-23 5 -57 99 -71 93c-12 -3 9 -70 -25 -81l-25 79l-77 241l-175 -234l-69 -90c-19 18 11 56 4 63c-9 9 -97 -45 -103 -38s38 70 30 77c-5 5 -24 0 -45 -27c-13 -17 -53 -27 -81 -27c0 17 72 54 58 64c-16 11 -52 -35 -87 -18l97 122l202 271
l-78 241l-1 4l-9 27l-45 143c35 11 66 -71 75 -67c14 6 -18 110 -2 97c42 -33 64 -84 74 -79c17 8 -15 113 6 108c23 -5 57 -99 71 -93c12 3 -11 69 23 80l36 -114l69 -212l192 256l9 12z" />
    <glyph glyph-name="Y" unicode="Y" horiz-adv-x="882" 
d="M541 0l-81 -141l-60 -110c-24 29 1 89 -9 95c-12 9 -81 -105 -95 -100s38 109 25 120c-9 8 -80 -81 -92 -75c-19 9 43 87 32 95c-8 4 -65 -48 -86 -33l41 68l95 166l-146 591l-31 110c35 11 53 -42 62 -38c14 6 -1 92 15 79c42 -33 52 -73 62 -68c17 8 -11 102 10 97
c23 -5 53 -88 67 -82c12 3 -11 59 23 70l35 -131l80 -319l185 326l48 85c29 -14 9 -50 12 -65c4 -21 44 24 69 55c19 -13 -15 -78 5 -75c24 4 25 29 58 54c21 16 35 25 57 34c10 -13 -50 -88 -35 -95c18 -8 44 51 82 41l-78 -137z" />
    <glyph glyph-name="Z" unicode="Z" horiz-adv-x="887" 
d="M846 750l6 -18l-400 -587h390c0 -23 -77 -25 -77 -40c0 -12 62 -21 62 -31c0 -14 -73 -10 -73 -25c0 -16 63 -23 63 -33c0 -13 -92 -18 -66 -40l31 -26h-751l-6 17l406 588h-323c14 27 54 25 54 35c0 9 -60 28 -60 41c0 14 69 0 69 17c0 10 -59 23 -59 36
c0 10 67 8 67 26c0 13 -40 11 -40 40h707z" />
    <glyph glyph-name="K.ss01" horiz-adv-x="964" 
d="M155 720l15 67c26 0 25 -45 39 -45c27 0 44 66 58 66c10 0 8 -71 24 -71c15 0 50 74 61 74s-8 -84 7 -84c18 0 32 52 65 52l-22 -102l-38 -181l417 285c12 -15 -9 -43 -2 -51s54 29 85 60c16 -16 -26 -72 -6 -72c15 0 21 12 58 30c24 11 49 17 73 21
c7 -15 -71 -67 -54 -78c20 -13 72 27 113 2l-501 -359l128 -214l70 -116c-24 -12 -74 39 -82 35c-11 -8 28 -84 20 -89c-16 -9 -75 75 -84 67c-13 -11 32 -106 19 -113c-19 -10 -77 102 -89 93c-10 -6 29 -76 0 -95l-63 99l-153 257l-59 -279l-16 -83c-27 0 -21 64 -42 64
c-19 0 -46 -81 -65 -81c-16 0 -5 81 -17 81c-21 0 -44 -84 -59 -81c-19 4 7 99 -9 99s-32 -58 -60 -58l20 99z" />
    <glyph glyph-name="N.ss01" horiz-adv-x="786" 
d="M161 795l12 4l349 -372l57 271l21 100c19 0 14 -61 24 -61c14 0 39 69 48 69c6 0 3 -66 19 -66c25 0 26 72 44 72c10 0 5 -66 23 -66c13 0 28 58 36 58c7 0 8 -49 23 -49c11 0 22 37 39 37l-16 -72l-174 -815l-12 -5l-348 374l-48 -226l-20 -92c-26 0 -19 48 -37 48
c-13 0 -28 -79 -38 -79c-14 0 -10 75 -24 75c-15 0 -32 -67 -46 -67c-11 0 -3 71 -14 71c-15 0 -31 -82 -46 -82c-11 0 5 90 -10 90c-6 0 -13 -24 -34 -24l15 70z" />
    <glyph glyph-name="a" unicode="a" horiz-adv-x="811" 
d="M386 720l44 72c16 -7 2 -52 23 -52c19 0 36 27 54 67c19 0 11 -55 27 -55c22 0 40 100 62 100l20 -132l109 -685l9 -51c-23 0 -42 39 -52 39c-12 0 -6 -105 -15 -105c-11 0 -51 97 -72 97c-20 0 -19 -64 -26 -64s-32 55 -43 55c-21 0 -8 -68 -37 -74l-17 103l-15 91h-141
l-93 -159l-40 -69c-14 16 -18 64 -25 69c-9 7 -80 -81 -91 -73c-10 7 16 95 10 99c-8 5 -96 -79 -103 -72c-3 3 45 84 41 90c-6 9 -34 -13 -46 -3l32 55z" />
    <glyph glyph-name="b" unicode="b" horiz-adv-x="919" 
d="M238 730c73 22 179 38 284 38c180 0 357 -48 357 -202c0 -85 -54 -142 -134 -173c59 -19 131 -77 131 -188c0 -198 -230 -264 -456 -264c-131 0 -269 22 -343 48l-69 23c4 24 55 18 55 29c0 15 -75 49 -75 59c0 11 92 -4 95 11c3 13 -64 43 -64 52c0 10 73 0 73 9
c0 5 -43 32 -36 51l91 -33l68 318l-21 -10v0c-17 -8 -35 -17 -48 -25c-6 33 34 53 34 69c0 13 -73 -14 -73 -2c0 23 77 55 77 69c0 13 -84 -8 -84 6c0 13 88 35 88 50c0 14 -50 -9 -78 9c38 22 95 45 128 56zM394 148c123 -3 226 23 226 89c0 52 -63 62 -193 64zM453 425
c114 7 157 41 157 77c0 42 -55 59 -128 59z" />
    <glyph glyph-name="c" unicode="c" horiz-adv-x="960" 
d="M57 287c0 295 316 533 867 502l77 -4c-3 -17 -53 -22 -53 -35c0 -16 79 -10 79 -21s-94 -19 -94 -33c0 -10 54 -14 54 -19c0 -6 -79 -19 -79 -30c0 -10 63 -15 63 -24c0 -10 -89 -19 -89 -30c0 -8 37 -10 37 -33h-91c-194 0 -506 -65 -506 -243c0 -149 219 -169 418 -97
c31 13 66 29 89 43c14 -18 -44 -55 -40 -65c5 -13 124 37 124 28c0 -41 -98 -64 -84 -80s98 22 98 7c0 -20 -105 -58 -96 -72c4 -6 62 0 82 -29c-29 -15 -78 -36 -118 -49c-414 -144 -738 -15 -738 284z" />
    <glyph glyph-name="d" unicode="d" horiz-adv-x="1035" 
d="M1016 352c-64 -359 -512 -446 -924 -389l-3 1h-3l-69 14c6 24 62 27 62 38s-66 31 -66 41c0 12 82 7 88 16s-58 46 -58 55c0 12 95 -8 95 1c0 5 -40 23 -36 39h74h7l71 344c-22 -6 -52 -22 -78 -39c-6 36 26 49 26 67c0 14 -84 -23 -84 -9c0 25 85 59 85 74s-88 -8 -88 7
c0 14 88 41 88 58c0 15 -81 -5 -88 25c36 15 68 25 101 35c510 116 856 -64 800 -378zM441 179c168 18 297 67 316 199c16 112 -89 164 -240 168z" />
    <glyph glyph-name="e" unicode="e" horiz-adv-x="797" 
d="M161 750h708c0 -23 -60 -25 -60 -39c0 -13 65 -15 62 -26c-4 -16 -73 -18 -73 -33c0 -12 63 -21 63 -34c0 -17 -106 -3 -65 -37l31 -26h-451l-22 -101h420c-5 -28 -67 -30 -67 -41c0 -14 52 -24 52 -35c0 -13 -63 -12 -63 -22c0 -7 54 -19 54 -26c0 -15 -50 -11 -50 -21
c0 -12 47 -16 54 -41h-439l-27 -123h429c0 -24 -54 -25 -54 -35c0 -9 60 -27 60 -41c0 -8 -69 0 -69 -16c0 -11 22 -19 59 -27c-14 -28 -67 -18 -67 -36c0 -13 24 -17 40 -40h-695z" />
    <glyph glyph-name="f" unicode="f" horiz-adv-x="749" 
d="M161 750h678c0 -23 -72 -25 -72 -39c0 -13 58 -16 58 -26s-69 -16 -69 -31c0 -11 59 -15 59 -25c0 -12 -68 -17 -68 -35c0 -12 36 -11 36 -39h-407l-25 -127h364c-5 -32 -69 -25 -69 -41c0 -14 55 -24 55 -35c0 -13 -59 -18 -59 -28c0 -7 51 -13 51 -20
c0 -15 -47 -11 -47 -21c0 -13 43 -11 50 -41h-383l-42 -207l-17 -85c-37 0 -32 61 -49 61c-19 0 -51 -105 -61 -105c-17 0 -6 87 -15 87c-16 0 -50 -79 -59 -79c-12 0 -4 79 -15 79c-18 0 -33 -66 -61 -66l22 108z" />
    <glyph glyph-name="g" unicode="g" horiz-adv-x="952" 
d="M817 -69c-38 6 -24 58 -39 58c-20 0 -50 -86 -64 -86c-13 0 -9 72 -26 72c-18 0 -42 -72 -72 -72c6 29 11 63 -3 63c-13 0 -27 -31 -52 -31l19 84c-55 -33 -119 -42 -183 -42c-182 0 -342 123 -336 338c10 342 403 499 864 499h73c0 -16 -49 -27 -49 -39
c0 -17 101 -6 101 -17s-109 -25 -109 -39c0 -10 57 -13 57 -19s-75 -20 -75 -31c0 -10 67 -15 67 -25s-85 -19 -85 -30c0 -8 41 -11 41 -34h-81c-262 -1 -543 -90 -543 -250c0 -64 45 -109 115 -109c105 0 192 98 220 163l13 30c25 5 19 -67 34 -67c18 0 31 92 43 92
c8 0 21 -50 31 -50c13 0 35 75 50 75c10 0 -3 -93 23 -93c17 0 32 41 67 41z" />
    <glyph glyph-name="h" unicode="h" horiz-adv-x="827" 
d="M615 720l18 77c30 0 21 -59 35 -59s47 62 57 62s6 -68 20 -68c26 0 51 68 61 68c12 0 2 -66 19 -66c26 0 28 45 59 45l-13 -59l-153 -720l-20 -93c-28 0 -12 83 -30 83c-11 0 -30 -56 -42 -56c-9 0 -7 56 -23 56c-9 0 -55 -87 -70 -87c-17 0 4 97 -25 97
c-9 0 -44 -57 -57 -53l11 53l60 282h-204l-49 -232l-26 -120c-38 0 -28 63 -48 63c-11 0 -57 -87 -67 -87c-17 0 -6 84 -15 84c-16 0 -37 -56 -46 -56c-12 0 -8 56 -19 56c-18 0 -34 -64 -62 -64l16 74l151 711l14 68c31 0 14 -45 40 -45c17 0 35 66 47 66
c10 0 6 -68 32 -68c14 0 39 68 49 68s17 -62 31 -62s30 59 60 59l-15 -77l-52 -243h204l50 234l1 4z" />
    <glyph glyph-name="i" unicode="i" horiz-adv-x="368" 
d="M241 -72c-14 4 -26 67 -41 67c-8 0 -43 -92 -55 -92s0 92 -21 92c-18 0 -34 -70 -63 -77c11 60 10 90 -5 90c-18 0 -36 -73 -66 -73l16 76l146 686l20 103c33 0 13 -53 32 -53c25 0 46 78 59 78c12 0 1 -80 13 -80c11 0 43 70 65 70c11 0 -13 -78 7 -78c21 0 35 52 80 52
l-15 -69l-151 -709z" />
    <glyph glyph-name="j" unicode="j" horiz-adv-x="765" 
d="M56 351c29 0 22 -44 41 -44c23 0 38 66 49 66s10 -68 30 -68s41 68 52 68c10 0 17 -62 31 -62s33 58 63 58l-21 -95c-15 -66 15 -105 62 -105c43 0 78 19 98 115l90 426l19 85c30 0 22 -59 36 -59s47 62 57 62c11 0 3 -68 23 -68s48 68 59 68s-2 -66 21 -66
c19 0 27 45 56 45l-17 -77l-93 -436c-32 -148 -127 -290 -364 -290c-207 0 -327 117 -300 320z" />
    <glyph glyph-name="k" unicode="k" horiz-adv-x="877" 
d="M155 720l15 67c26 0 25 -45 39 -45c27 0 44 66 58 66c10 0 8 -71 24 -71c15 0 50 74 61 74s-8 -84 7 -84c18 0 32 52 65 52l-22 -102l-45 -211l223 239l86 95c12 -10 10 -22 0 -63c-7 -28 87 40 118 65c16 -16 -26 -72 -6 -72c15 0 21 24 58 42c24 11 49 17 73 21
c7 -15 -77 -63 -63 -73c16 -11 52 30 87 13l-67 -67l-279 -298l148 -248l70 -116c-24 -12 -74 39 -82 35c-11 -8 28 -84 20 -89c-16 -9 -75 75 -84 67c-13 -11 32 -106 19 -113c-19 -10 -77 102 -89 93c-10 -6 29 -76 0 -95l-63 99l-197 331l-75 -353l-16 -83
c-27 0 -21 64 -42 64c-19 0 -46 -81 -65 -81c-16 0 -5 81 -17 81c-21 0 -44 -84 -59 -81c-19 4 7 99 -9 99s-32 -58 -60 -58l20 99z" />
    <glyph glyph-name="l" unicode="l" horiz-adv-x="671" 
d="M156 720l15 74c15 4 15 -64 24 -64c8 0 19 38 25 38c7 0 14 -37 20 -37c11 0 38 87 48 87c17 0 6 -84 15 -84c16 0 37 56 46 56c12 0 8 -56 19 -56c18 0 32 64 60 64l-27 -132l-111 -521h317c-13 -27 -49 -25 -49 -35c0 -9 29 -7 54 -41c-27 4 -62 0 -62 -16
c0 -11 20 -19 53 -27c-12 -28 -60 -18 -60 -36c0 -13 22 -17 36 -40h-587z" />
    <glyph glyph-name="m" unicode="m" horiz-adv-x="850" 
d="M145 720l21 97c30 -7 6 -53 25 -53c10 0 17 40 27 25l46 -69l189 -280l320 280l42 37c13 0 8 -21 18 -21c16 0 27 62 48 62c-3 -21 -4 -45 6 -45s14 59 39 64l-23 -98l-150 -710l-14 -68c-19 0 -12 55 -29 55c-14 0 -47 -65 -56 -65c-10 0 -11 64 -27 64
c-25 0 -56 -79 -69 -79c-6 0 2 72 -14 72c-11 0 -34 -36 -58 -32l12 53l47 201l-137 -106h-9l-98 143l-48 -209l-30 -127c-13 0 -25 58 -38 58c-19 0 -50 -81 -60 -81c-14 0 -3 81 -23 81c-16 0 -44 -81 -57 -75c-15 7 8 94 -9 94s-36 -50 -56 -45l20 95z" />
    <glyph glyph-name="n" unicode="n" horiz-adv-x="786" 
d="M145 720l21 97c30 -7 11 -53 25 -53c12 0 8 33 16 23l60 -68l256 -289l56 268l21 100c19 0 14 -61 24 -61c14 0 39 69 48 69c6 0 3 -66 19 -66c25 0 33 72 44 72c8 0 5 -66 23 -66c13 0 28 58 36 58c7 0 8 -49 23 -49c11 0 22 37 39 37l-16 -72l-153 -720l-21 -97
c-22 5 -2 64 -12 64c-9 0 -16 -18 -21 -39c-19 0 -10 56 -24 56c-9 0 -4 -18 -17 -18l-27 35l-256 287l-51 -240l-20 -92c-26 0 -19 48 -37 48c-13 0 -28 -79 -38 -79c-14 0 -10 75 -24 75c-15 0 -32 -67 -46 -67c-11 0 -3 71 -14 71c-15 0 -31 -82 -46 -82
c-11 0 5 90 -10 90c-6 0 -13 -24 -34 -24l15 70z" />
    <glyph glyph-name="o" unicode="o" horiz-adv-x="1150" 
d="M1137 416c0 -251 -235 -393 -408 -443c-260 -74 -671 -18 -671 320c0 154 84 297 271 392c339 173 808 84 808 -269zM329 252c43 -103 207 -108 332 -66c120 40 215 115 215 215c0 165 -253 206 -431 92c-98 -63 -150 -158 -116 -241z" />
    <glyph glyph-name="p" unicode="p" horiz-adv-x="932" 
d="M250 730c104 27 257 43 344 43c219 0 353 -102 353 -289c0 -243 -256 -338 -535 -309l-37 -175l-17 -83c-26 0 -23 62 -34 62c-13 0 -60 -93 -68 -93c-13 0 5 94 -6 94c-9 0 -55 -75 -68 -75c-15 0 5 85 -11 85c-8 0 -42 -79 -69 -71l17 81l109 512l-15 -4l-96 -36
c-13 36 73 64 73 79c0 17 -104 -7 -104 8c0 20 118 40 118 60c0 18 -95 1 -95 16c0 10 92 29 92 45c0 10 -40 11 -43 27zM458 389c132 -11 229 13 229 88c0 57 -54 82 -148 82c-14 0 -30 -1 -46 -2z" />
    <glyph glyph-name="q" unicode="q" horiz-adv-x="1175" 
d="M596 251l-53 69c20 17 68 -17 77 -9c7 7 -44 84 -36 91c10 8 88 -65 96 -56c6 6 -31 77 -24 84c12 12 65 -48 75 -40c12 9 0 40 7 53l40 -51l67 -85c20 28 31 59 31 94c0 165 -253 206 -431 92c-98 -63 -150 -158 -116 -241c42 -100 197 -108 321 -70zM58 293
c0 154 84 297 271 392c339 173 808 84 808 -269c0 -127 -60 -226 -142 -300l49 -64l54 -70c-20 -17 -68 17 -77 9c-7 -7 47 -79 36 -91c-7 -8 -88 65 -96 56c-6 -6 40 -89 32 -97c-9 -9 -73 61 -83 53c-12 -9 0 -40 -7 -53l-44 57l-63 80c-23 -9 -45 -17 -67 -23
c-260 -74 -671 -18 -671 320z" />
    <glyph glyph-name="r" unicode="r" horiz-adv-x="1015" 
d="M271 731c302 73 693 79 693 -233c0 -131 -79 -229 -196 -279l144 -156l35 -39c-33 -17 -53 13 -67 0c-19 -19 44 -64 44 -103c-25 17 -51 26 -68 45c-19 21 -34 37 -47 30c-14 -8 34 -110 22 -116c-10 -5 -90 92 -100 84c-12 -10 25 -57 12 -74l-63 71l-216 231
c-10 2 -20 4 -30 7l-42 -199l-30 -147c-28 4 -24 98 -32 101c-14 7 -34 -87 -47 -81c-12 5 -24 92 -33 96c-10 4 -31 -89 -43 -84c-7 3 -7 112 -25 112c-11 0 -34 -82 -62 -70l19 86l106 498l-15 -3l-96 -36c-13 36 73 64 73 79c0 17 -55 3 -55 17c0 17 69 26 69 46
c0 18 -122 -9 -122 9c0 19 122 51 122 60c0 13 -43 8 -46 24zM471 373c121 -25 233 16 233 107c0 73 -73 90 -193 78z" />
    <glyph glyph-name="s" unicode="s" horiz-adv-x="718" 
d="M286 306c-15 65 -94 118 -94 238c0 200 346 301 463 301c29 0 -39 -33 -33 -45s120 32 127 19s-84 -49 -77 -57c6 -8 108 19 114 5c8 -18 -83 -34 -78 -47c3 -9 75 0 93 -31c-221 -45 -298 -83 -298 -165c0 -75 88 -138 113 -247c47 -208 -306 -390 -466 -415
c29 40 73 73 62 80c-15 9 -127 -55 -182 -55c4 18 98 72 79 78s-134 -37 -150 -29c-13 6 136 75 126 95c-4 8 -51 -14 -120 9c205 76 345 164 321 266z" />
    <glyph glyph-name="t" unicode="t" horiz-adv-x="820" 
d="M903 750c0 -23 -70 -25 -70 -39c0 -13 56 0 56 -26c-46 -8 -66 -16 -66 -31c0 -16 25 -25 57 -25c0 -30 -96 -14 -59 -48l28 -26h-232l-117 -553l-20 -93c-28 0 -12 83 -30 83c-11 0 -30 -56 -42 -56c-9 0 -7 56 -23 56c-17 0 -52 -84 -64 -84c-19 0 -2 94 -26 94
c-16 0 -33 -62 -62 -53l11 53l117 553h-253c0 23 66 26 66 43c0 15 -53 25 -53 37c0 13 57 19 57 29c0 7 -49 14 -49 21c0 16 45 12 45 22c0 14 -41 12 -48 43h777z" />
    <glyph glyph-name="u" unicode="u" horiz-adv-x="819" 
d="M153 690l14 67c30 0 18 -45 37 -45c24 0 39 66 51 66s11 -68 32 -68c20 0 42 68 53 68s18 -62 32 -62c15 0 25 59 57 59l-20 -86l-99 -445c-12 -52 12 -105 85 -105c58 0 100 30 119 115l96 438l20 85c31 0 21 -59 37 -59c17 0 36 62 49 62c14 0 4 -68 25 -68
s50 68 62 68c11 0 -3 -66 21 -66c20 0 28 45 58 45l-18 -77l-99 -448c-35 -160 -151 -290 -387 -290c-242 0 -362 135 -317 335z" />
    <glyph glyph-name="v" unicode="v" horiz-adv-x="768" 
d="M460 0l-45 -72c-17 7 -2 52 -24 52c-20 0 -37 -27 -56 -67c-20 0 -11 55 -28 55c-23 0 -50 -79 -73 -79l-14 111l-89 685l-7 53c23 0 39 -39 49 -39c12 0 6 105 15 105c11 0 51 -97 72 -97c20 0 19 64 26 64s32 -55 43 -55c21 0 12 66 41 72l14 -103l34 -287l176 320h-1
l45 78c14 -11 7 -67 22 -67c16 0 77 83 88 71c6 -6 -24 -89 -15 -94c13 -7 92 70 99 63c5 -5 -46 -76 -37 -82s32 11 46 0l-47 -85l-325 -588l-2 -3z" />
    <glyph glyph-name="w" unicode="w" horiz-adv-x="1250" 
d="M460 0l-45 -72c-17 7 -2 52 -24 52c-20 0 -37 -27 -56 -67c-20 0 -11 55 -28 55c-23 0 -50 -79 -73 -79l-14 111l-89 685l-7 53c23 0 39 -39 49 -39c12 0 6 105 15 105c11 0 51 -97 72 -97c20 0 19 64 26 64s32 -55 43 -55c21 0 12 66 41 72l14 -103l35 -293l183 316l4 6
l3 6l47 80c17 -7 12 -61 34 -61c20 0 37 27 56 67c20 0 11 -55 28 -55c23 0 50 92 73 92l14 -123l37 -321l178 326l45 78c20 -3 16 -65 28 -70c17 -7 68 74 82 74c17 0 -18 -93 -9 -98c8 -5 83 78 90 71c3 -3 -42 -82 -31 -89c10 -6 27 16 43 3l-47 -85l-329 -595l-2 -3
l-7 -11l-45 -72c-17 7 -2 52 -24 52c-20 0 -37 -27 -56 -67c-20 0 -11 55 -28 55c-23 0 -50 -79 -73 -79l-14 111l-42 339z" />
    <glyph glyph-name="x" unicode="x" horiz-adv-x="896" 
d="M701 784l44 57c19 -18 1 -51 9 -56c10 -6 50 25 81 50c16 -16 -24 -75 -4 -75c15 0 21 24 58 42c24 11 49 17 73 21c7 -15 -77 -63 -63 -73c16 -11 52 35 87 18l-87 -108l-246 -326l76 -237l55 -174c-35 -11 -65 72 -74 68c-14 -6 18 -110 2 -97c-42 33 -64 84 -74 79
c-17 -8 15 -113 -6 -108c-23 5 -57 99 -71 93c-12 -3 9 -70 -25 -81l-25 79l-77 241l-175 -234l-69 -90c-19 18 11 56 4 63c-9 9 -97 -45 -103 -38s38 70 30 77c-5 5 -24 0 -45 -27c-13 -17 -53 -27 -81 -27c0 17 72 54 58 64c-16 11 -52 -35 -87 -18l97 122l202 271
l-78 241l-1 4l-9 27l-45 143c35 11 66 -71 75 -67c14 6 -18 110 -2 97c42 -33 64 -84 74 -79c17 8 -15 113 6 108c23 -5 57 -99 71 -93c12 3 -11 69 23 80l36 -114l69 -212l192 256l9 12z" />
    <glyph glyph-name="y" unicode="y" horiz-adv-x="882" 
d="M541 0l-81 -141l-60 -110c-24 29 1 89 -9 95c-12 9 -81 -105 -95 -100s38 109 25 120c-9 8 -80 -81 -92 -75c-19 9 43 87 32 95c-8 4 -65 -48 -86 -33l41 68l95 166l-146 591l-31 110c35 11 53 -42 62 -38c14 6 -1 92 15 79c42 -33 52 -73 62 -68c17 8 -11 102 10 97
c23 -5 53 -88 67 -82c12 3 -11 59 23 70l35 -131l80 -319l185 326l48 85c29 -14 9 -50 12 -65c4 -21 44 24 69 55c19 -13 -15 -78 5 -75c24 4 25 29 58 54c21 16 35 25 57 34c10 -13 -50 -88 -35 -95c18 -8 44 51 82 41l-78 -137z" />
    <glyph glyph-name="z" unicode="z" horiz-adv-x="887" 
d="M846 750l6 -18l-400 -587h390c0 -23 -77 -25 -77 -40c0 -12 62 -21 62 -31c0 -14 -73 -10 -73 -25c0 -16 63 -23 63 -33c0 -13 -92 -18 -66 -40l31 -26h-751l-6 17l406 588h-323c14 27 54 25 54 35c0 9 -60 28 -60 41c0 14 69 0 69 17c0 10 -59 23 -59 36
c0 10 67 8 67 26c0 13 -40 11 -40 40h707z" />
    <glyph glyph-name="k.ss01" horiz-adv-x="964" 
d="M155 720l15 67c26 0 25 -45 39 -45c27 0 44 66 58 66c10 0 8 -71 24 -71c15 0 50 74 61 74s-8 -84 7 -84c18 0 32 52 65 52l-22 -102l-38 -181l417 285c12 -15 -9 -43 -2 -51s54 29 85 60c16 -16 -26 -72 -6 -72c15 0 21 12 58 30c24 11 49 17 73 21
c7 -15 -71 -67 -54 -78c20 -13 72 27 113 2l-501 -359l128 -214l70 -116c-24 -12 -74 39 -82 35c-11 -8 28 -84 20 -89c-16 -9 -75 75 -84 67c-13 -11 32 -106 19 -113c-19 -10 -77 102 -89 93c-10 -6 29 -76 0 -95l-63 99l-153 257l-59 -279l-16 -83c-27 0 -21 64 -42 64
c-19 0 -46 -81 -65 -81c-16 0 -5 81 -17 81c-21 0 -44 -84 -59 -81c-19 4 7 99 -9 99s-32 -58 -60 -58l20 99z" />
    <glyph glyph-name="n.ss01" horiz-adv-x="786" 
d="M161 795l12 4l349 -372l57 271l21 100c19 0 14 -61 24 -61c14 0 39 69 48 69c6 0 3 -66 19 -66c25 0 26 72 44 72c10 0 5 -66 23 -66c13 0 28 58 36 58c7 0 8 -49 23 -49c11 0 22 37 39 37l-16 -72l-174 -815l-12 -5l-348 374l-48 -226l-20 -92c-26 0 -19 48 -37 48
c-13 0 -28 -79 -38 -79c-14 0 -10 75 -24 75c-15 0 -32 -67 -46 -67c-11 0 -3 71 -14 71c-15 0 -31 -82 -46 -82c-11 0 5 90 -10 90c-6 0 -13 -24 -34 -24l15 70z" />
    <glyph glyph-name="zero" unicode="0" horiz-adv-x="868" 
d="M68 376c34 220 205 392 440 392c274 0 396 -238 322 -502c-63 -227 -230 -324 -413 -324c-265 0 -386 206 -349 434zM327 358c-17 -94 -13 -220 92 -220c82 0 137 76 162 206c25 125 8 227 -79 227c-75 0 -150 -77 -175 -213z" />
    <glyph glyph-name="one" unicode="1" horiz-adv-x="575" 
d="M618 781l11 -7l-162 -771l-15 -74c-15 -4 -15 64 -24 64c-8 0 -19 -38 -25 -38c-7 0 -14 37 -20 37c-11 0 -38 -87 -48 -87c-17 0 -6 84 -15 84c-16 0 -37 -56 -46 -56c-12 0 -8 56 -19 56c-18 0 -32 -64 -60 -64l27 132l75 353l-156 -51c-9 36 55 68 50 81
c-7 18 -103 -12 -103 3c0 14 98 61 93 80c-3 13 -95 -9 -99 9c-4 20 100 44 94 63c-4 12 -76 6 -85 36z" />
    <glyph glyph-name="two" unicode="2" horiz-adv-x="844" 
d="M34 -15c157 111 472 386 472 516c0 123 -277 24 -366 -34c-6 33 34 53 34 69c0 13 -73 -14 -73 -2c0 23 77 55 77 69c0 13 -84 -8 -84 6c0 13 88 35 88 50c0 14 -50 -9 -78 9c93 59 234 100 360 100c130 0 311 -43 311 -218c0 -145 -126 -317 -216 -405h219
c-3 -21 -66 -25 -66 -42c0 -15 53 -25 53 -37c0 -13 -57 -20 -57 -29s49 -12 49 -24c0 -11 -45 -9 -45 -21c0 -11 41 -10 48 -42h-716z" />
    <glyph glyph-name="three" unicode="3" horiz-adv-x="851" 
d="M235 738c55 17 138 30 207 30c180 0 357 -48 357 -202c0 -85 -54 -142 -134 -173c59 -19 131 -77 131 -188c0 -198 -230 -264 -456 -264c-111 0 -191 22 -265 48l-69 23c4 24 55 18 55 29c0 15 -75 49 -75 59c0 11 92 -4 95 11c3 13 -64 43 -64 52c0 10 73 0 73 9
c0 5 -43 32 -36 51l95 -34c179 -60 391 -53 391 48c0 57 -81 69 -224 69h-67c0 23 56 24 56 31c0 14 -50 20 -50 30c0 8 50 9 50 23c0 8 -32 7 -41 29h68c137 0 198 42 198 83c0 77 -164 72 -290 25v-1c-6 -1 -14 -4 -23 -8s-18 -8 -26 -12c-17 -8 -35 -17 -48 -25
c-6 33 34 53 34 69c0 13 -73 -14 -73 -2c0 23 77 55 77 69c0 13 -84 -8 -84 6c0 13 88 35 88 50c0 14 -50 -9 -78 9c38 25 95 45 128 56z" />
    <glyph glyph-name="four" unicode="4" horiz-adv-x="802" 
d="M593 739l79 88c12 -14 -16 -62 -6 -62c24 0 59 72 69 72c12 0 -7 -84 5 -84c16 0 37 56 46 56c12 0 8 -56 19 -56c18 0 32 64 60 64l-27 -132l-146 -685l-16 -83c-24 0 -28 64 -42 64c-19 0 -51 -81 -65 -81c-12 0 -5 81 -17 81c-21 0 -46 -81 -57 -81
c-20 0 5 100 -11 100s-32 -59 -60 -59l20 99l30 138h-456l-9 19l303 421l100 138c25 -14 -2 -73 9 -82c16 -14 81 85 98 72c13 -10 -24 -71 1 -83zM411 373h104l45 209z" />
    <glyph glyph-name="five" unicode="5" horiz-adv-x="846" 
d="M793 216c0 -204 -230 -275 -449 -275c-121 0 -198 22 -272 48l-69 23c4 24 55 18 55 29c0 15 -75 49 -75 59c0 11 92 -4 95 11c3 13 -64 43 -64 52c0 10 73 0 73 9c0 5 -43 32 -36 51l95 -34c175 -60 391 -61 391 44c0 57 -63 91 -182 91c-86 0 -169 -18 -226 -37l-7 8
l87 455h626c0 -23 -70 -25 -70 -39c0 -13 56 0 56 -26c-46 -8 -66 -16 -66 -31c0 -16 25 -25 57 -25c0 -30 -96 -14 -59 -48l28 -26h-359l-20 -93c192 42 391 -56 391 -246z" />
    <glyph glyph-name="six" unicode="6" horiz-adv-x="850" 
d="M423 -59c-213 0 -359 130 -359 365c0 262 181 460 538 560c10 -11 -19 -38 -16 -46c5 -13 99 33 105 19c6 -15 -102 -73 -77 -83c17 -7 100 20 104 12s-78 -51 -78 -68c0 -13 56 10 75 -22c-27 -10 -217 -84 -269 -166c29 14 68 23 118 23c128 0 246 -99 246 -254
c0 -170 -144 -340 -387 -340zM320 259c0 -70 42 -116 106 -116c70 0 124 59 124 138c0 68 -43 110 -107 110c-73 0 -123 -54 -123 -132z" />
    <glyph glyph-name="seven" unicode="7" horiz-adv-x="745" 
d="M821 750l7 -14l-398 -739l-41 -75c-26 11 -19 52 -35 52s-57 -73 -72 -69c-12 3 1 66 -8 69c-10 3 -21 -2 -40 -33c-14 -21 -35 -40 -46 -36c-9 3 23 71 11 78c-17 10 -33 -39 -71 -28l24 42l301 558h-347c13 27 49 25 49 35c0 9 -29 7 -54 41c27 -4 62 0 62 16
c0 11 -20 19 -53 27c12 28 60 18 60 36c0 13 -31 10 -36 40h687z" />
    <glyph glyph-name="eight" unicode="8" horiz-adv-x="915" 
d="M552 771c174 0 375 -43 375 -211c0 -70 -57 -147 -159 -175c56 -30 98 -82 98 -155c0 -106 -89 -289 -434 -289c-217 0 -401 77 -401 245c0 121 96 187 179 207c-54 28 -86 72 -86 135c0 145 165 243 428 243zM296 218c0 -44 52 -68 139 -68c106 0 175 35 175 86
c0 44 -52 68 -139 68c-106 0 -175 -35 -175 -86zM362 483c0 -41 50 -63 131 -63c98 0 163 32 163 77c0 41 -52 63 -134 63c-98 0 -160 -31 -160 -77z" />
    <glyph glyph-name="nine" unicode="9" horiz-adv-x="848" 
d="M476 768c219 0 355 -132 355 -355c0 -241 -163 -483 -575 -602c-10 11 26 43 20 51c-9 12 -103 -27 -109 -20c-11 13 102 78 77 87c-17 6 -99 -28 -104 -20s76 56 72 73c-3 13 -50 -1 -69 18c26 10 217 92 292 181c-26 -10 -57 -17 -93 -17c-139 0 -257 109 -257 264
c0 170 142 340 391 340zM345 428c0 -68 43 -110 107 -110c73 0 123 54 123 132c0 70 -42 116 -106 116c-70 0 -124 -59 -124 -138z" />
    <glyph glyph-name="period" unicode="." horiz-adv-x="393" 
d="M144 -58c-78 0 -121 56 -121 119c0 73 57 141 141 141c75 0 120 -54 120 -121c0 -74 -56 -139 -140 -139z" />
    <glyph glyph-name="comma" unicode="," horiz-adv-x="397" 
d="M25 -140l53 112c-32 18 -50 53 -50 92c0 69 57 138 141 138c75 0 120 -55 120 -118c0 -26 -10 -71 -38 -100l-156 -163l-30 -32c-3 14 -5 42 -9 45c-5 4 -31 -7 -49 -11z" />
    <glyph glyph-name="colon" unicode=":" horiz-adv-x="390" 
d="M134 -58c-78 0 -121 56 -121 119c0 73 57 141 141 141c75 0 120 -54 120 -121c0 -74 -56 -139 -140 -139zM119 529c0 73 57 141 141 141c75 0 120 -54 120 -121c0 -74 -56 -139 -140 -139c-78 0 -121 56 -121 119z" />
    <glyph glyph-name="semicolon" unicode=";" horiz-adv-x="405" 
d="M255 410c-78 0 -121 56 -121 119c0 73 57 141 141 141c75 0 120 -54 120 -121c0 -74 -56 -139 -140 -139zM7 -177l18 37l53 112c-32 18 -50 53 -50 92c0 69 57 138 141 138c75 0 120 -55 120 -118c0 -26 -10 -71 -38 -100l-156 -163l-30 -32c-3 14 -5 42 -9 45
c-5 4 -31 -7 -49 -11z" />
    <glyph glyph-name="ellipsis" unicode="&#x2026;" horiz-adv-x="1033" 
d="M463 -58c-78 0 -121 56 -121 119c0 73 57 141 141 141c75 0 120 -54 120 -121c0 -74 -56 -139 -140 -139zM23 61c0 73 57 141 141 141c75 0 120 -54 120 -121c0 -74 -56 -139 -140 -139c-78 0 -121 56 -121 119zM663 61c0 73 57 141 141 141c75 0 120 -54 120 -121
c0 -74 -56 -139 -140 -139c-78 0 -121 56 -121 119z" />
    <glyph glyph-name="exclam" unicode="!" horiz-adv-x="413" 
d="M188 720l14 80c27 0 20 -42 33 -42c19 0 35 42 48 42c12 0 6 -55 24 -55s34 66 52 66c11 0 10 -74 30 -74s47 63 78 50l-23 -67l-130 -369l-29 -80c-23 11 -6 61 -19 64c-21 6 -50 -76 -62 -76c-13 0 -11 83 -25 86c-20 4 -37 -68 -68 -68l20 117zM23 61
c0 73 57 141 141 141c75 0 120 -54 120 -121c0 -74 -56 -139 -140 -139c-78 0 -121 56 -121 119z" />
    <glyph glyph-name="question" unicode="?" horiz-adv-x="752" 
d="M300 254c6 18 30 19 27 30c-3 10 -57 5 -57 10c0 4 34 23 34 29s-26 4 -30 17l30 12c126 50 206 116 206 176c0 114 -289 12 -366 -41c-6 33 34 53 34 69c0 13 -73 -14 -73 -2c0 23 77 55 77 69c0 13 -84 -8 -84 6c0 13 88 35 88 50c0 14 -50 -9 -78 9
c93 59 234 100 361 100c179 0 310 -81 310 -202c0 -189 -274 -332 -479 -332zM200 61c0 73 57 141 141 141c75 0 120 -54 120 -121c0 -74 -56 -139 -140 -139c-78 0 -121 56 -121 119z" />
    <glyph glyph-name="periodcentered" unicode="&#xb7;" horiz-adv-x="393" 
d="M197 190c-78 0 -121 56 -121 119c0 73 57 141 141 141c75 0 120 -54 120 -121c0 -74 -56 -139 -140 -139z" />
    <glyph glyph-name="bullet" unicode="&#x2022;" horiz-adv-x="474" 
d="M242 190c-101 0 -158 74 -158 156c0 95 75 184 185 184c98 0 156 -70 156 -158c0 -97 -73 -182 -183 -182z" />
    <glyph glyph-name="asterisk" unicode="*" horiz-adv-x="612" 
d="M271 399l14 56l-60 -37l-52 -34c-6 15 16 30 11 43c-4 10 -40 -3 -43 4c-4 11 32 33 29 40c-4 9 -46 3 -49 9c-3 5 33 21 29 28c-3 5 -22 4 -29 21l30 13l14 6l15 6l45 18l-61 29l-31 14c11 17 30 13 37 24c5 7 -23 27 -19 33c4 5 46 -2 49 3c5 9 -24 31 -18 39
c4 5 34 -8 44 5c6 9 -10 27 1 42l43 -34l47 -37l2 54l2 69c17 0 23 -25 32 -25c15 0 21 35 29 35c7 0 9 -39 18 -39s26 41 32 41c8 0 3 -37 12 -37c11 0 20 18 39 18l-8 -36l-19 -80l72 46l39 25c5 -15 -14 -35 -11 -43c6 -13 39 4 42 -4c3 -9 -34 -26 -28 -40
c3 -7 43 6 47 -2c3 -8 -32 -23 -28 -34c5 -12 23 -6 30 -23l-35 -15l-69 -28l41 -19v1l18 -9l7 -3l26 -13c-11 -17 -28 -11 -36 -23c-7 -11 21 -32 18 -36s-42 8 -48 0c-3 -4 22 -34 18 -39c-5 -7 -35 9 -44 -5c-6 -9 10 -25 0 -40l-44 33l-48 36l-3 -64l-2 -59
c-17 0 -22 25 -30 25c-16 0 -23 -35 -31 -35c-6 0 -8 39 -17 39s-25 -41 -31 -41c-7 0 -4 37 -13 37c-11 0 -20 -18 -39 -18l7 31l5 20z" />
    <glyph glyph-name="numbersign" unicode="#" horiz-adv-x="803" 
d="M234 717l13 65c27 0 10 -36 26 -36c20 0 34 48 44 48s5 -57 15 -57c9 0 31 55 44 55c11 0 8 -62 21 -62c17 0 22 43 59 43l-16 -76l-19 -87h113l25 117l12 57c27 0 10 -36 26 -36c20 0 34 48 44 48s5 -57 15 -57c9 0 31 55 44 55c11 0 8 -62 21 -62c17 0 22 43 59 43
l-17 -76l-19 -89h114c0 -21 -67 -23 -67 -36c0 -12 54 -15 54 -24s-64 -15 -64 -29c0 -10 54 -14 54 -23c0 -11 -62 -15 -62 -32c0 -11 33 -10 33 -36h-100l-24 -110h115c0 -21 -67 -23 -67 -36c0 -12 54 -15 54 -24s-64 -15 -64 -29c0 -10 54 -14 54 -23
c0 -11 -62 -15 -62 -32c0 -11 33 -10 33 -36h-101l-30 -140l-17 -86c-23 4 -21 58 -31 62c-12 5 -41 -63 -51 -58c-10 4 -4 67 -15 71c-9 3 -35 -61 -46 -57c-13 5 -2 67 -17 67c-7 0 -21 -48 -44 -48l22 99l19 90h-113l-25 -120l-19 -96c-23 4 -21 58 -31 62
c-12 5 -41 -63 -51 -58c-10 4 -4 67 -15 71c-9 3 -35 -61 -46 -57c-13 5 -2 67 -17 67c-7 0 -21 -48 -44 -48l21 99l17 80h-113c0 21 67 23 67 36c0 12 -54 15 -54 24s64 15 64 29c0 10 -54 14 -54 23c0 11 62 15 62 32c0 11 -33 10 -33 36h99l24 110h-114c0 21 67 23 67 36
c0 12 -54 15 -54 24s64 15 64 29c0 10 -54 14 -54 23c0 11 62 15 62 32c0 11 -33 10 -33 36h100zM359 320h113l24 110h-113z" />
    <glyph glyph-name="slash" unicode="/" horiz-adv-x="623" 
d="M507 792l39 60c19 -17 -7 -51 2 -57c8 -6 52 23 61 16s-20 -48 -12 -53c6 -4 42 24 48 20c8 -5 -17 -45 -8 -51c11 -7 40 28 62 20l-55 -84l-479 -731l-40 -62c-19 17 6 54 -3 60c-8 6 -52 -26 -61 -19s20 48 12 53c-6 4 -42 -21 -48 -17c-8 5 17 42 8 48
c-11 7 -40 -30 -62 -22l34 52z" />
    <glyph glyph-name="backslash" unicode="\" horiz-adv-x="953" 
d="M328 792l502 -767l34 -52c-22 -8 -51 29 -62 22c-9 -6 16 -43 8 -48c-6 -4 -42 21 -48 17c-8 -5 21 -46 12 -53s-53 25 -61 19c-9 -6 16 -43 -3 -60l-40 62l-479 731l-55 84c22 8 51 -27 62 -20c9 6 -16 46 -8 51c6 4 42 -24 48 -20c8 5 -21 46 -12 53s53 -22 61 -16
c9 6 -17 40 2 57z" />
    <glyph glyph-name="hyphen" unicode="-" horiz-adv-x="631" 
d="M600 425c-6 -30 -49 -22 -53 -37c-3 -12 41 -28 41 -38c0 -11 -50 -21 -53 -38c-3 -19 40 -18 48 -53h-513c6 30 49 22 53 37c3 12 -41 28 -41 38c0 11 50 21 53 38c3 19 -48 18 -48 53h513z" />
    <glyph glyph-name="endash" unicode="&#x2013;" horiz-adv-x="721" 
d="M690 425c-6 -30 -49 -22 -53 -37c-3 -12 41 -28 41 -38c0 -11 -50 -21 -53 -38c-3 -19 40 -18 48 -53h-603c6 30 49 22 53 37c3 12 -41 28 -41 38c0 11 50 21 53 38c3 19 -48 18 -48 53h603z" />
    <glyph glyph-name="emdash" unicode="&#x2014;" horiz-adv-x="921" 
d="M890 425c-6 -30 -49 -22 -53 -37c-3 -12 41 -28 41 -38c0 -11 -50 -21 -53 -38c-3 -19 40 -18 48 -53h-803c6 30 49 22 53 37c3 12 -41 28 -41 38c0 11 50 21 53 38c3 19 -48 18 -48 53h803z" />
    <glyph glyph-name="underscore" unicode="_" horiz-adv-x="631" 
d="M510 0c-6 -30 -49 -22 -53 -37c-3 -12 41 -28 41 -38c0 -11 -50 -21 -53 -38c-3 -19 40 -18 48 -53h-513c6 30 49 22 53 37c3 12 -41 28 -41 38c0 11 50 21 53 38c3 19 -48 18 -48 53h513z" />
    <glyph glyph-name="parenleft" unicode="(" horiz-adv-x="486" 
d="M56 264c0 198 106 401 274 528c30 25 70 41 76 35c3 -3 -22 -35 -18 -41c4 -7 102 35 107 29c4 -5 -56 -62 -46 -72c9 -9 61 19 72 0l-52 -48c-136 -136 -199 -273 -199 -430c0 -99 42 -196 94 -274c13 -18 24 -30 38 -40c-28 -23 -60 19 -69 8c-11 -12 23 -68 18 -74
c-5 -7 -81 26 -85 18c-4 -7 28 -49 19 -49c-15 0 -53 20 -72 36c-100 90 -157 236 -157 374z" />
    <glyph glyph-name="parenright" unicode=")" horiz-adv-x="485" 
d="M468 418c0 -198 -106 -401 -274 -528c-30 -25 -70 -41 -76 -35c-3 3 22 35 18 41c-4 7 -102 -35 -107 -29c-4 5 56 62 46 72c-9 9 -61 -19 -72 0l52 48c136 136 199 273 199 430c0 99 -42 196 -94 274c-13 18 -24 30 -38 40c28 23 60 -19 69 -8c11 12 -23 68 -18 74
c5 7 81 -26 85 -18c4 7 -28 49 -19 49c15 0 53 -20 72 -36c100 -90 157 -236 157 -374z" />
    <glyph glyph-name="braceleft" unicode="{" horiz-adv-x="578" 
d="M247 643c24 116 96 173 214 173h195c-5 -32 -69 -25 -69 -41c0 -14 55 -25 55 -35c0 -13 -59 -18 -59 -28c0 -7 51 -13 51 -20c0 -15 -47 -11 -47 -21c0 -13 43 -11 50 -41h-92c-57 0 -92 -27 -104 -84l-22 -109c-8 -40 -26 -67 -118 -81l-3 -12c75 -2 91 -54 82 -94
l-25 -114c-8 -37 11 -60 49 -60h96c-5 -32 -69 -25 -69 -41c0 -14 55 -24 55 -35c0 -13 -59 -18 -59 -28c0 -7 51 -13 51 -20c0 -15 -47 -11 -47 -21c0 -13 43 -11 50 -41h-231c-101 0 -151 57 -129 159l33 153c8 37 -11 60 -49 60h-61c5 33 69 26 69 42c0 14 -55 25 -55 36
c0 13 59 19 59 29c0 7 -51 13 -51 20c0 16 47 12 47 22c0 13 -43 11 -50 42h94c33 0 53 17 60 49z" />
    <glyph glyph-name="braceright" unicode="}" horiz-adv-x="577" 
d="M374 63c-24 -116 -96 -173 -214 -173h-195c5 32 69 25 69 41c0 14 -55 25 -55 35c0 13 59 18 59 28c0 7 -51 13 -51 20c0 15 47 11 47 21c0 13 -43 11 -50 41h92c57 0 92 27 104 84l22 109c8 40 26 67 118 81l3 12c-75 2 -91 54 -82 94l25 114c8 37 -11 60 -49 60h-96
c5 32 69 25 69 41c0 14 -55 24 -55 35c0 13 59 18 59 28c0 7 -51 13 -51 20c0 15 47 11 47 21c0 13 -43 11 -50 41h231c101 0 151 -57 129 -159l-33 -153c-8 -37 11 -60 49 -60h61c-5 -33 -69 -26 -69 -42c0 -14 55 -25 55 -36c0 -13 -59 -19 -59 -29c0 -7 51 -13 51 -20
c0 -16 -47 -12 -47 -22c0 -13 43 -11 50 -42h-94c-33 0 -53 -17 -60 -49z" />
    <glyph glyph-name="bracketleft" unicode="[" horiz-adv-x="475" 
d="M165 816h372c-5 -32 -69 -25 -69 -41c0 -14 55 -25 55 -35c0 -13 -59 -18 -59 -28c0 -7 51 -13 51 -20c0 -15 -47 -11 -47 -21c0 -13 43 -11 50 -41h-178l-117 -554h174c-5 -32 -69 -25 -69 -41c0 -14 55 -24 55 -35c0 -13 -59 -18 -59 -28c0 -7 51 -13 51 -20
c0 -15 -47 -11 -47 -21c0 -13 43 -11 50 -41h-410z" />
    <glyph glyph-name="bracketright" unicode="]" horiz-adv-x="475" 
d="M353 -110h-372c5 32 69 25 69 41c0 14 -55 25 -55 35c0 13 59 18 59 28c0 7 -51 13 -51 20c0 15 47 11 47 21c0 13 -43 11 -50 41h178l117 554h-174c5 32 69 25 69 41c0 14 -55 24 -55 35c0 13 59 18 59 28c0 7 -51 13 -51 20c0 15 47 11 47 21c0 13 -43 11 -50 41h410z
" />
    <glyph glyph-name="quotesinglbase" unicode="&#x201a;" horiz-adv-x="397" 
d="M25 -140l53 112c-32 18 -50 53 -50 92c0 69 57 138 141 138c75 0 120 -55 120 -118c0 -26 -10 -71 -38 -100l-156 -163l-30 -32c-3 14 -5 42 -9 45c-5 4 -31 -7 -49 -11z" />
    <glyph glyph-name="quotedblbase" unicode="&#x201e;" horiz-adv-x="697" 
d="M325 -140l53 112c-32 18 -50 53 -50 92c0 69 57 138 141 138c75 0 120 -55 120 -118c0 -26 -10 -71 -38 -100l-156 -163l-30 -32c-3 14 -5 42 -9 45c-5 4 -31 -7 -49 -11zM7 -177l18 37l53 112c-32 18 -50 53 -50 92c0 69 57 138 141 138c75 0 120 -55 120 -118
c0 -26 -10 -71 -38 -100l-156 -163l-30 -32c-3 14 -5 42 -9 45c-5 4 -31 -7 -49 -11z" />
    <glyph glyph-name="quotedblleft" unicode="&#x201c;" horiz-adv-x="688" 
d="M404 789l-53 -112c32 -18 50 -53 50 -92c0 -69 -57 -138 -141 -138c-75 0 -120 55 -120 118c0 26 10 71 38 100l156 163l30 32c3 -14 5 -42 9 -45c5 -4 31 7 49 11zM440 565c0 26 10 71 38 100l156 163l30 32c3 -14 5 -42 9 -45c5 -4 31 7 49 11l-18 -37l-53 -112
c32 -18 50 -53 50 -92c0 -69 -57 -138 -141 -138c-75 0 -120 55 -120 118z" />
    <glyph glyph-name="quotedblright" unicode="&#x201d;" horiz-adv-x="687" 
d="M455 518l53 112c-32 18 -50 53 -50 92c0 69 57 138 141 138c75 0 120 -55 120 -118c0 -26 -10 -71 -38 -100l-156 -163l-30 -32c-3 14 -5 42 -9 45c-5 4 -31 -7 -49 -11zM137 481l18 37l53 112c-32 18 -50 53 -50 92c0 69 57 138 141 138c75 0 120 -55 120 -118
c0 -26 -10 -71 -38 -100l-156 -163l-30 -32c-3 14 -5 42 -9 45c-5 4 -31 -7 -49 -11z" />
    <glyph glyph-name="quoteleft" unicode="&#x2018;" horiz-adv-x="388" 
d="M404 789l-53 -112c32 -18 50 -53 50 -92c0 -69 -57 -138 -141 -138c-75 0 -120 55 -120 118c0 26 10 71 38 100l156 163l30 32c3 -14 5 -42 9 -45c5 -4 31 7 49 11z" />
    <glyph glyph-name="quoteright" unicode="&#x2019;" horiz-adv-x="387" 
d="M155 518l53 112c-32 18 -50 53 -50 92c0 69 57 138 141 138c75 0 120 -55 120 -118c0 -26 -10 -71 -38 -100l-156 -163l-30 -32c-3 14 -5 42 -9 45c-5 4 -31 -7 -49 -11z" />
    <glyph glyph-name="quotedbl" unicode="&#x22;" horiz-adv-x="468" 
d="M522 713l-44 -163l-14 -50c-17 0 -9 25 -18 25c-15 0 -26 -35 -34 -35c-7 0 -6 39 -17 39c-9 0 -25 -41 -31 -41c-7 0 -1 37 -10 37c-11 0 -12 -23 -31 -20l5 31l31 196l9 55c19 0 18 -28 27 -28c17 0 27 39 36 39c7 0 6 -43 16 -43s32 45 39 45c8 0 1 -41 11 -41
c12 0 22 20 43 20zM109 505l5 31l31 196l9 55c19 0 18 -28 27 -28c17 0 27 39 36 39c7 0 6 -43 16 -43s32 45 39 45c8 0 1 -41 11 -41c12 0 22 20 43 20l-18 -66l-44 -163l-14 -50c-17 0 -9 25 -18 25c-15 0 -26 -35 -34 -35c-7 0 -6 39 -17 39c-9 0 -25 -41 -31 -41
c-7 0 -1 37 -10 37c-11 0 -12 -23 -31 -20z" />
    <glyph glyph-name="quotesingle" unicode="'" horiz-adv-x="254" 
d="M308 713l-44 -163l-14 -50c-17 0 -9 25 -18 25c-15 0 -26 -35 -34 -35c-7 0 -6 39 -17 39c-9 0 -25 -41 -31 -41c-7 0 -1 37 -10 37c-11 0 -12 -23 -31 -20l5 31l31 196l9 55c19 0 18 -28 27 -28c17 0 27 39 36 39c7 0 6 -43 16 -43s32 45 39 45c8 0 1 -41 11 -41
c12 0 22 20 43 20z" />
    <glyph glyph-name="at" unicode="@" 
 />
    <glyph glyph-name="ampersand" unicode="&#x26;" 
 />
    <glyph glyph-name="bar" unicode="|" horiz-adv-x="325" 
d="M161 750l10 48c12 3 12 -48 20 -48c7 0 16 26 21 26c6 0 12 -26 17 -26c8 0 31 67 40 67c14 0 7 -65 14 -65c14 0 30 42 37 42c10 0 7 -42 15 -42c15 0 28 49 52 49l-11 -51l-173 -814l-13 -63c-12 -3 -12 48 -20 48c-7 0 -16 -26 -21 -26c-6 0 -12 26 -17 26
c-8 0 -31 -67 -40 -67c-14 0 -7 65 -14 65c-14 0 -30 -42 -37 -42c-10 0 -7 42 -15 42c-15 0 -28 -49 -52 -49l14 66z" />
    <glyph glyph-name="brokenbar" unicode="&#xa6;" horiz-adv-x="326" 
d="M109 500l53 250l10 48c12 3 12 -48 20 -48c7 0 16 26 21 26c6 0 12 -26 17 -26c8 0 31 67 40 67c14 0 7 -65 14 -65c14 0 30 42 37 42c10 0 7 -42 15 -42c15 0 28 49 52 49l-11 -51l-53 -250l-13 -62c-12 -3 -12 48 -20 48c-7 0 -16 -26 -21 -26c-6 0 -12 26 -17 26
c-8 0 -31 -67 -40 -67c-14 0 -7 65 -14 65c-14 0 -30 -42 -37 -42c-10 0 -7 42 -15 42c-15 0 -28 -49 -52 -49zM-25 -130l14 66l52 244l13 63c12 3 12 -48 20 -48c7 0 16 26 21 26c6 0 12 -26 17 -26c8 0 31 67 40 67c14 0 7 -65 14 -65c14 0 30 42 37 42c10 0 7 -42 15 -42
c15 0 28 49 52 49l-14 -66l-52 -244l-13 -63c-12 -3 -12 48 -20 48c-7 0 -16 -26 -21 -26c-6 0 -12 26 -17 26c-8 0 -31 -67 -40 -67c-14 0 -7 65 -14 65c-14 0 -30 -42 -37 -42c-10 0 -7 42 -15 42c-15 0 -28 -49 -52 -49z" />
    <glyph glyph-name="dollar" unicode="$" horiz-adv-x="722" 
d="M290 306c-15 65 -94 118 -94 219c0 74 44 136 108 185l42 199l10 48c12 3 12 -48 20 -48c7 0 16 26 21 26c6 0 12 -26 17 -26c8 0 31 67 40 67c14 0 7 -65 14 -65c14 0 30 42 37 42c10 0 7 -42 15 -42c15 0 28 49 52 49l-11 -51l-20 -94c83 19 162 21 212 4
c16 -5 -91 -41 -84 -49c6 -8 117 12 121 -3c3 -11 -90 -34 -85 -47c3 -9 82 0 100 -31c-221 -45 -298 -83 -298 -165c0 -75 88 -138 110 -236c19 -85 -25 -163 -101 -228l-42 -195l-13 -63c-12 -3 -12 48 -20 48c-7 0 -16 -26 -21 -26c-6 0 -12 26 -17 26
c-8 0 -31 -67 -40 -67c-14 0 -7 65 -14 65c-14 0 -30 -42 -37 -42c-10 0 -7 42 -15 42c-15 0 -28 -49 -52 -49l14 66l14 65c-82 -27 -167 -43 -239 -43c4 18 98 72 79 78s-134 -11 -150 -3c-13 6 136 49 126 69c-4 8 -110 -8 -120 25c216 62 345 148 321 250z" />
    <glyph glyph-name="plus" unicode="+" horiz-adv-x="691" 
d="M660 425c-6 -30 -49 -22 -53 -37c-3 -12 41 -28 41 -38c0 -11 -50 -21 -53 -38c-3 -19 40 -18 48 -53h-207l-45 -212c-28 6 -15 49 -29 53c-12 3 -37 -41 -47 -41c-11 0 -11 50 -27 53c-18 3 -32 -48 -67 -48l42 195h-193c6 30 49 22 53 37c3 12 -41 28 -41 38
c0 11 50 21 53 38c3 19 -48 18 -48 53h211l45 212c28 -6 15 -49 29 -53c12 -3 37 41 47 41c11 0 11 -50 27 -53c18 -3 30 40 67 48l-42 -195h189z" />
    <glyph glyph-name="minus" unicode="&#x2212;" horiz-adv-x="691" 
d="M660 425c-6 -30 -49 -22 -53 -37c-3 -12 41 -28 41 -38c0 -11 -50 -21 -53 -38c-3 -19 40 -18 48 -53h-573c6 30 49 22 53 37c3 12 -41 28 -41 38c0 11 50 21 53 38c3 19 -48 18 -48 53h573z" />
    <glyph glyph-name="equal" unicode="=" horiz-adv-x="706" 
d="M649 305c-6 -30 -49 -22 -53 -37c-3 -12 41 -28 41 -38c0 -11 -50 -21 -53 -38c-3 -19 40 -18 48 -53h-553c6 30 49 22 53 37c3 12 -41 28 -41 38c0 11 50 21 53 38c3 19 -48 18 -48 53h553zM96 380c6 30 49 22 53 37c3 12 -41 28 -41 38c0 11 50 21 53 38
c3 19 -48 18 -48 53h553c-6 -30 -49 -22 -53 -37c-3 -12 41 -28 41 -38c0 -11 -50 -21 -53 -38c-3 -19 40 -18 48 -53h-553z" />
    <glyph glyph-name="greater" unicode="&#x3e;" 
 />
    <glyph glyph-name="less" unicode="&#x3c;" 
 />
    <glyph glyph-name="asciitilde" unicode="~" 
 />
    <glyph glyph-name="asciicircum" unicode="^" horiz-adv-x="514" 
d="M284 800l36 51c13 -7 -10 -48 4 -48s28 25 42 65c16 0 10 -55 23 -55c18 0 20 82 38 82l25 -95l72 -238l15 -52c-12 -4 -29 26 -35 23c-7 -3 9 -66 1 -69c-7 -3 -32 52 -40 48c-10 -4 3 -70 -5 -73c-9 -3 -17 40 -24 37c-8 -4 -12 -29 -21 -32l-20 69l-42 143l-108 -156
l-30 -44c-10 12 -1 38 -5 42c-6 4 -46 -50 -53 -45c-6 5 20 58 12 62c-9 5 -54 -48 -60 -42s20 37 14 42c-7 6 -31 -10 -38 -4l36 52l138 201l13 18z" />
    <glyph glyph-name="percent" unicode="%" horiz-adv-x="1085" 
d="M305 450c-111 0 -172 80 -172 170c0 104 81 201 201 201c107 0 171 -77 171 -172c0 -106 -80 -199 -200 -199zM150 52l42 46l626 666l51 54c15 -20 -16 -49 -8 -56c7 -8 55 13 63 5c7 -9 -28 -44 -21 -50c5 -5 45 16 50 11c7 -6 -24 -41 -16 -49c9 -8 44 21 64 9l-69 -73
l-599 -636l1 -1l-50 -54c-16 20 15 52 7 60c-7 7 -56 -17 -63 -8c-8 8 28 44 21 50c-6 5 -45 -14 -51 -9c-7 7 24 39 17 46c-10 9 -45 -22 -65 -11zM629 83c0 104 81 201 201 201c107 0 171 -77 171 -172c0 -106 -80 -199 -200 -199c-111 0 -172 80 -172 170z" />
    </font>
</defs>
</svg>
